<svg width="73" height="72" viewBox="0 0 73 72" fill="none" xmlns="http://www.w3.org/2000/svg">
<g opacity="0.6">
<path d="M70.8331 37.3171C70.5135 37.6093 70.1938 37.9014 69.8701 38.1897C69.773 38.2765 69.773 38.3397 69.8579 38.4344C70.0926 38.699 70.3111 38.9753 70.5458 39.2359C70.6672 39.3662 70.6794 39.4451 70.5216 39.5596C70.1978 39.8044 69.8903 40.0689 69.5545 40.3413C69.8418 40.7322 70.121 41.1073 70.4204 41.506C70.0238 41.7903 69.6354 42.0667 69.2348 42.3588C69.4978 42.7615 69.7527 43.1524 70.0238 43.5748C69.7649 43.7367 69.518 43.9025 69.2631 44.0565C68.7856 44.3486 68.7816 44.3486 69.0446 44.8224C69.1862 45.083 69.34 45.3356 69.4978 45.616C69.2065 45.7739 68.9273 45.9279 68.644 46.0779C68.1989 46.3148 68.1989 46.3108 68.4174 46.7609C68.5509 47.0333 68.6845 47.3057 68.8139 47.5781C68.818 47.5821 68.8139 47.59 68.8139 47.6216C68.5307 47.7558 68.2353 47.8979 67.9359 48.0322C67.4908 48.2375 67.4908 48.2375 67.6769 48.6718C67.7781 48.9086 67.8671 49.1495 67.9763 49.3824C68.037 49.5166 68.0289 49.5877 67.8711 49.6469C67.5272 49.7654 67.1994 49.9154 66.8555 50.0378C66.7098 50.0891 66.6855 50.1523 66.7341 50.2865C66.8352 50.5668 66.9242 50.8471 67.0173 51.1275C67.0537 51.238 67.0821 51.3525 67.1225 51.4788C66.7098 51.6131 66.3173 51.7473 65.9167 51.8657C65.7791 51.9092 65.7346 51.9644 65.7791 52.1066C65.8762 52.4461 65.9531 52.7975 66.0542 53.137C66.1028 53.2989 66.0381 53.3463 65.9005 53.3818C65.5525 53.4647 65.2126 53.5595 64.8646 53.6384C64.7189 53.67 64.6785 53.7332 64.7108 53.8714C64.7877 54.2306 64.8524 54.5939 64.9334 54.9531C64.9617 55.0755 64.9172 55.1189 64.8039 55.1426C64.4397 55.2098 64.0796 55.2848 63.7113 55.344C63.5616 55.3677 63.5009 55.4111 63.5252 55.569C63.5819 55.9204 63.6102 56.2757 63.6709 56.6232C63.6992 56.7771 63.6709 56.8324 63.5009 56.8482C63.1448 56.8798 62.7928 56.943 62.4408 56.9745C62.2587 56.9903 62.2182 57.0653 62.2384 57.2272C62.2708 57.5075 62.2829 57.7918 62.2991 58.0721C62.3072 58.1866 62.2991 58.305 62.2991 58.4393C61.8257 58.4709 61.3563 58.5024 60.8626 58.538C60.8626 59.0196 60.8626 59.4895 60.8626 59.9909C60.4863 59.9909 60.1383 59.9909 59.7903 59.9909C59.3735 59.9909 59.3735 59.9909 59.3492 60.3817C59.329 60.6699 59.3088 60.9581 59.2926 61.2463C59.2845 61.3727 59.24 61.4319 59.0943 61.4201C58.7584 61.3885 58.4226 61.3766 58.0867 61.3529C57.8156 61.3332 57.8075 61.3411 57.7752 61.6056C57.7347 61.9373 57.6861 62.2689 57.6497 62.6045C57.6335 62.7466 57.5647 62.7782 57.4312 62.7585C57.0792 62.7111 56.7231 62.6755 56.371 62.6203C56.2132 62.5966 56.1363 62.6282 56.1121 62.794C56.0595 63.1296 55.9745 63.4652 55.9259 63.8007C55.8976 63.9863 55.8126 64.006 55.6508 63.9705C55.323 63.9034 54.9871 63.856 54.6594 63.781C54.4854 63.7415 54.4085 63.7771 54.368 63.9587C54.2952 64.3061 54.19 64.6456 54.105 64.9931C54.0767 65.1076 54.0362 65.1431 53.9108 65.1115C53.5668 65.0167 53.2148 64.9536 52.8749 64.8509C52.6685 64.7878 52.5997 64.8509 52.5471 65.0325C52.4338 65.4037 52.3043 65.7708 52.1748 66.1656C51.8754 66.0748 51.5921 65.988 51.3048 65.9051C51.1308 65.8537 50.9204 65.7274 50.795 65.7866C50.6736 65.8419 50.6331 66.0827 50.5643 66.2446C50.451 66.5091 50.3458 66.7815 50.2285 67.0697C50.0585 67.0066 49.9048 66.9513 49.751 66.896C49.5203 66.8092 49.2816 66.7302 49.055 66.6276C48.8972 66.5565 48.8203 66.5802 48.7515 66.7421C48.5937 67.1092 48.4116 67.4724 48.2295 67.8594C48.0231 67.7646 47.8249 67.6738 47.6266 67.583C47.4364 67.4961 47.2462 67.4132 47.0601 67.3224C46.9346 67.2632 46.8618 67.275 46.789 67.4132C46.5988 67.7764 46.3924 68.1278 46.178 68.5108C45.8826 68.3568 45.5993 68.2147 45.3201 68.0647C44.8831 67.8317 44.8831 67.8317 44.6201 68.2344C44.4825 68.4437 44.3489 68.6569 44.2154 68.8701C44.1385 68.9964 44.0657 69.0438 43.916 68.9411C43.6246 68.7437 43.309 68.574 43.0136 68.3805C42.8882 68.2976 42.8153 68.2976 42.7223 68.4318C42.4876 68.7674 42.2367 69.0951 41.9777 69.4465C41.6985 69.253 41.4274 69.0635 41.1603 68.874C40.784 68.6016 40.784 68.6016 40.4846 68.953C40.2741 69.2017 40.0678 69.4504 39.8452 69.7149C39.4608 69.4149 39.0885 69.1188 38.696 68.8108C38.3602 69.1622 38.0364 69.4978 37.6925 69.8571C37.3364 69.5333 36.9844 69.2135 36.6121 68.878C36.2479 69.2096 35.8918 69.5373 35.5317 69.8729C35.1877 69.5215 34.8559 69.178 34.512 68.8266C34.1316 69.1346 33.7634 69.4346 33.3789 69.7465C33.0633 69.3794 32.7598 69.024 32.4361 68.645C32.0396 68.9214 31.6551 69.1938 31.2505 69.4781C31.1817 69.3991 31.117 69.328 31.0603 69.253C30.8742 69.0043 30.6799 68.7595 30.5059 68.4989C30.4129 68.3608 30.336 68.3331 30.1863 68.4318C29.8464 68.6569 29.4943 68.8661 29.1261 69.0951C29.0452 68.9806 28.9642 68.8701 28.8914 68.7595C28.7336 68.5226 28.5758 68.2857 28.4301 68.041C28.3532 67.9146 28.2804 67.9028 28.1549 67.9738C27.7867 68.1791 27.4144 68.3765 27.03 68.5818C26.8236 68.2186 26.6213 67.8712 26.4352 67.5159C26.3543 67.3619 26.2855 67.3224 26.1115 67.4132C25.7513 67.6027 25.371 67.7607 24.9785 67.9383C24.8166 67.6067 24.6588 67.2829 24.4969 66.9592C24.4726 66.9039 24.4362 66.8565 24.42 66.8013C24.3674 66.6591 24.2825 66.6591 24.153 66.7105C23.7766 66.8644 23.3922 67.0066 22.9876 67.1645C22.9471 67.0855 22.9067 67.0224 22.8783 66.9513C22.7448 66.6276 22.6113 66.3038 22.4818 65.9801C22.4413 65.8695 22.3847 65.8419 22.2714 65.8814C21.8627 66.0156 21.454 66.1459 21.017 66.288C20.9522 66.1064 20.8956 65.9327 20.8349 65.7629C20.758 65.5379 20.6811 65.3129 20.6123 65.0878C20.5718 64.9615 20.503 64.9259 20.3736 64.9615C20.0175 65.0602 19.6573 65.1391 19.3012 65.2378C19.1637 65.2773 19.107 65.2378 19.0746 65.1076C18.9897 64.768 18.8845 64.4364 18.8076 64.0969C18.7671 63.9073 18.674 63.8915 18.5122 63.9271C18.1197 64.01 17.7231 64.085 17.3023 64.164C17.2578 63.9666 17.2173 63.785 17.1809 63.5994C17.1364 63.3744 17.0919 63.1493 17.0554 62.9203C17.0352 62.79 16.9745 62.7466 16.8369 62.7663C16.4647 62.8177 16.0883 62.8532 15.7161 62.9124C15.5785 62.9322 15.538 62.9006 15.5259 62.7703C15.4773 62.3558 15.4166 61.9412 15.3559 61.503C14.8623 61.5346 14.3848 61.5622 13.883 61.5977C13.8466 61.1161 13.8142 60.6502 13.7818 60.1606C13.3448 60.1606 12.928 60.1527 12.5113 60.1646C12.3413 60.1685 12.2887 60.1172 12.2927 59.9553C12.3049 59.6 12.2887 59.2447 12.2968 58.8894C12.3008 58.7512 12.2482 58.7117 12.1107 58.7038C11.6939 58.688 11.2771 58.6564 10.8441 58.6288C10.8441 58.4867 10.8401 58.3564 10.8441 58.23C10.8603 57.9418 10.8765 57.6536 10.9048 57.3654C10.9169 57.2351 10.8805 57.1759 10.7349 57.164C10.3788 57.1325 10.0267 57.0851 9.67063 57.0456C9.44807 57.018 9.42784 56.9943 9.46021 56.7653C9.50877 56.4218 9.55733 56.0744 9.60184 55.7309C9.60588 55.6875 9.60184 55.6401 9.60184 55.5848C9.12031 55.494 8.64687 55.4072 8.15724 55.3164C8.23817 54.9097 8.30696 54.5307 8.38789 54.1517C8.42836 53.9661 8.39194 53.8714 8.17748 53.8279C7.79711 53.7529 7.42079 53.6463 7.004 53.5476C7.1173 53.0817 7.23465 52.6238 7.352 52.15C6.8826 52 6.43344 51.8578 5.95596 51.7039C6.05308 51.3999 6.14614 51.1156 6.24326 50.8274C6.40917 50.326 6.40917 50.326 5.9074 50.1365C5.6201 50.0259 5.3328 49.9154 5.03336 49.8009C5.19522 49.4022 5.33685 49.0192 5.50276 48.6481C5.57155 48.4902 5.52703 48.427 5.38136 48.3638C5.00099 48.198 4.62467 48.0243 4.23216 47.8466C4.40616 47.4794 4.57207 47.136 4.73797 46.7925C4.85532 46.5477 4.85936 46.5477 4.62467 46.4214C4.35356 46.2753 4.07839 46.1332 3.80728 45.9871C3.7304 45.9476 3.65756 45.9002 3.56449 45.8489C3.79919 45.4265 4.02579 45.0159 4.26453 44.5855C3.84775 44.3289 3.4431 44.0762 3.02226 43.8156C3.28124 43.409 3.53212 43.0142 3.79514 42.5957C3.39859 42.3154 3.01012 42.0351 2.60548 41.7469C2.84827 41.4152 3.07082 41.0875 3.3217 40.7796C3.45928 40.6098 3.42287 40.523 3.26505 40.4045C2.94943 40.1716 2.64999 39.9189 2.32627 39.6623C2.59334 39.3504 2.84017 39.0503 3.0951 38.7542C3.2691 38.5489 3.27315 38.5529 3.07082 38.3713C2.81994 38.1423 2.5731 37.9093 2.31413 37.6883C2.20488 37.5974 2.20083 37.5343 2.29794 37.4356C2.56097 37.1711 2.8078 36.8947 3.07082 36.6302C3.16389 36.5354 3.1558 36.4722 3.06678 36.3814C2.76734 36.0774 2.47599 35.7734 2.16846 35.4576C2.48408 35.1694 2.78352 34.8851 3.0951 34.6167C3.21649 34.5101 3.22054 34.435 3.11129 34.3127C2.84017 34.0126 2.58929 33.6968 2.30604 33.3651C2.50027 33.2032 2.68236 33.0493 2.87254 32.8914C3.01822 32.7729 3.15984 32.6545 3.30956 32.54C3.41073 32.465 3.41477 32.3978 3.33384 32.2952C3.07891 31.9675 2.83208 31.628 2.56906 31.2726C2.66617 31.2016 2.7552 31.1345 2.84422 31.0713C3.11129 30.8778 3.37431 30.6844 3.64137 30.4988C3.73444 30.4357 3.73849 30.3804 3.67779 30.2896C3.43905 29.9382 3.2084 29.5829 2.96157 29.2078C3.12747 29.0973 3.28528 28.9907 3.44714 28.888C3.62114 28.7775 3.79919 28.6709 3.97723 28.5603C4.20384 28.4182 4.19979 28.4182 4.06626 28.1813C3.88012 27.8536 3.69803 27.5259 3.49975 27.1746C3.5564 27.1351 3.61305 27.0877 3.67375 27.0561C3.98533 26.8863 4.29286 26.7126 4.61253 26.5508C4.75416 26.4797 4.77034 26.4126 4.69751 26.2783C4.50732 25.9151 4.33737 25.544 4.15123 25.1571C4.50732 24.9873 4.85127 24.8255 5.19522 24.6636C5.48252 24.5294 5.48252 24.5294 5.36113 24.2332C5.22355 23.8977 5.08597 23.5621 4.94029 23.2107C5.02122 23.1712 5.09001 23.1357 5.16285 23.1041C5.48252 22.9778 5.79815 22.8475 6.12187 22.7369C6.28777 22.6777 6.29586 22.6027 6.24326 22.4566C6.12187 22.1368 6.0207 21.8091 5.91145 21.4854C5.89122 21.4301 5.88312 21.3709 5.86289 21.2919C6.1421 21.2011 6.41321 21.1103 6.68433 21.0235C7.25083 20.8419 7.25083 20.8419 7.10111 20.2733C7.04042 20.0522 6.98377 19.8272 6.91902 19.6061C6.88665 19.4877 6.91093 19.4285 7.04446 19.3969C7.4572 19.2982 7.8659 19.1876 8.29887 19.0771C8.25841 18.852 8.22199 18.6349 8.18152 18.4177C8.14511 18.2164 8.10464 18.019 8.06013 17.8176C8.0318 17.7031 8.06418 17.6479 8.18962 17.6281C8.52952 17.5689 8.86538 17.5018 9.20124 17.4386C9.28621 17.4228 9.37119 17.4031 9.4764 17.3755C9.4157 16.8977 9.355 16.4358 9.29431 15.9542C9.78393 15.887 10.2574 15.8278 10.7591 15.7607C10.7308 15.283 10.7025 14.8132 10.6742 14.3276C11.1638 14.292 11.6291 14.2604 12.1309 14.2249C12.1309 14.0512 12.1309 13.8814 12.1309 13.7156C12.1309 13.4708 12.139 13.23 12.1268 12.9852C12.1187 12.8233 12.1875 12.7799 12.3413 12.7839C12.6974 12.7918 13.0575 12.7799 13.4136 12.7878C13.5674 12.7918 13.624 12.7404 13.6321 12.5865C13.6443 12.2311 13.6807 11.8798 13.6969 11.5244C13.7009 11.3823 13.7616 11.3428 13.8952 11.3547C14.3119 11.3823 14.7287 11.402 15.1698 11.4297C15.2103 11.1533 15.2467 10.8809 15.2831 10.6124C15.2993 10.4821 15.3195 10.3519 15.3276 10.2216C15.3317 10.0479 15.4166 10.0005 15.5866 10.0242C15.9872 10.0794 16.3878 10.1229 16.8208 10.1781C16.8531 10.0281 16.8815 9.88598 16.9098 9.7399C16.9624 9.47538 17.019 9.21086 17.0635 8.94634C17.0838 8.81606 17.1242 8.76078 17.274 8.79237C17.6301 8.86738 17.9902 8.92265 18.3463 8.99372C18.5 9.0253 18.5769 8.98977 18.6133 8.82395C18.7024 8.43309 18.8116 8.05013 18.9209 7.63164C19.4024 7.74613 19.8678 7.86062 20.3574 7.97907C20.4788 7.60795 20.5961 7.25262 20.7135 6.8973C20.8106 6.60909 20.7661 6.58935 21.0898 6.69595C21.4014 6.79859 21.721 6.8894 22.0326 6.99205C22.1702 7.03943 22.239 7.01179 22.2916 6.87361C22.4373 6.4867 22.5951 6.10374 22.7529 5.70103C23.1616 5.85501 23.5541 5.99714 23.9345 6.15506C24.0882 6.21823 24.1611 6.19059 24.2258 6.04451C24.3917 5.67734 24.5698 5.31807 24.7519 4.92721C25.0149 5.04171 25.2698 5.16015 25.5247 5.26675C25.7149 5.34571 25.9334 5.51153 26.0912 5.4681C26.2329 5.42862 26.3057 5.16015 26.4028 4.98643C26.5363 4.75745 26.6618 4.52846 26.8075 4.27183C27.0907 4.41791 27.3699 4.56004 27.6451 4.70612C28.1023 4.9509 28.1023 4.95485 28.3856 4.52451C28.5474 4.28368 28.7012 4.03495 28.8631 3.79017C28.8712 3.77833 28.8833 3.77438 28.9157 3.74674C29.2475 3.94809 29.5955 4.14155 29.9273 4.36264C30.1013 4.47713 30.1863 4.46529 30.3036 4.29157C30.5181 3.96783 30.7649 3.66383 31.0158 3.32825C31.3395 3.55723 31.6551 3.77833 31.9667 3.99942C32.2136 4.17313 32.2136 4.17313 32.4078 3.94414C32.6506 3.65594 32.8934 3.36378 33.1442 3.05978C33.4761 3.32035 33.7998 3.56513 34.1073 3.8257C34.257 3.95204 34.342 3.9323 34.4674 3.79807C34.7305 3.50591 35.0056 3.22954 35.297 2.92554C35.4953 3.09926 35.6814 3.26508 35.8675 3.4309C35.9849 3.53749 36.1103 3.64014 36.2196 3.75464C36.3288 3.87308 36.4219 3.87308 36.5392 3.76253C36.8427 3.47038 37.1503 3.18612 37.4537 2.90186C37.4659 2.90186 37.4821 2.90186 37.4942 2.90186C37.741 3.17032 37.9838 3.43484 38.2307 3.70331C38.3116 3.78622 38.4006 3.86518 38.4856 3.94809C38.87 3.6362 39.2382 3.34009 39.6105 3.03609C39.9342 3.41116 40.2458 3.77043 40.5614 4.1376C40.9701 3.8336 41.3505 3.56118 41.7471 3.27692C42.006 3.62435 42.2569 3.95204 42.4957 4.28368C42.5766 4.39817 42.6454 4.4337 42.7708 4.3429C42.9367 4.2284 43.1107 4.1297 43.2807 4.02311C43.4709 3.90466 43.6651 3.79017 43.8715 3.66383C44.09 3.99942 44.2923 4.30737 44.4946 4.61532C44.6646 4.87984 44.6646 4.87589 44.9357 4.72981C45.2675 4.5482 45.6034 4.37054 45.9594 4.18103C46.1658 4.54425 46.3722 4.88378 46.5543 5.23516C46.6393 5.39703 46.7202 5.43651 46.8901 5.34571C47.2543 5.1641 47.6266 5.00223 48.011 4.82456C48.2052 5.21937 48.3914 5.59049 48.5654 5.96161C48.622 6.08005 48.6787 6.11163 48.8122 6.05636C49.1521 5.91423 49.5042 5.79579 49.8441 5.65366C49.9897 5.59049 50.0464 5.62997 50.0949 5.76025C50.2244 6.09979 50.3701 6.43142 50.4996 6.77096C50.5441 6.88545 50.6008 6.92888 50.7262 6.8815C50.8961 6.81833 51.0701 6.76701 51.2441 6.71174C51.4869 6.63278 51.7257 6.55776 51.9766 6.4788C52.1141 6.8894 52.2477 7.27236 52.365 7.66322C52.4095 7.8014 52.4662 7.85273 52.624 7.80535C52.9477 7.7106 53.2755 7.63558 53.6032 7.55662C53.8784 7.48951 53.8784 7.49345 53.9472 7.76587C54.0443 8.13304 54.1414 8.50021 54.2426 8.87528C54.6837 8.79237 55.1004 8.71341 55.5172 8.6305C55.6508 8.60286 55.7115 8.63444 55.7317 8.77658C55.7924 9.1319 55.8733 9.48723 55.93 9.84255C55.9542 9.98073 56.019 10.0202 56.1485 10.0005C56.2941 9.97679 56.4398 9.95705 56.5895 9.94125C56.8728 9.90572 57.156 9.87414 57.4393 9.84255C57.504 10.3321 57.5688 10.794 57.6335 11.2639C58.1393 11.2323 58.6209 11.2046 59.1064 11.173C59.1348 11.5994 59.1752 11.9903 59.1874 12.3851C59.1914 12.5707 59.2643 12.6141 59.4423 12.6062C59.851 12.5944 60.2597 12.6022 60.6886 12.6022C60.6886 13.0405 60.6967 13.455 60.6846 13.8696C60.6805 14.0196 60.7331 14.0591 60.8788 14.063C61.243 14.0749 61.6072 14.1025 61.9673 14.1144C62.113 14.1183 62.1656 14.1815 62.1535 14.3236C62.1251 14.6789 62.1049 15.0303 62.0806 15.3856C62.0725 15.508 62.0928 15.587 62.2425 15.5988C62.5905 15.6304 62.9385 15.6778 63.2865 15.7173C63.5454 15.7449 63.5495 15.7489 63.5131 16.0134C63.4605 16.3963 63.4159 16.7793 63.3633 17.1741C63.8004 17.257 64.2172 17.3439 64.6339 17.407C64.7877 17.4307 64.8079 17.486 64.7837 17.6123C64.7189 17.94 64.6704 18.2717 64.5935 18.5994C64.549 18.7849 64.5652 18.8876 64.7877 18.927C65.1195 18.9863 65.4392 19.085 65.767 19.156C65.9207 19.1916 65.9774 19.2429 65.9248 19.4087C65.8196 19.7482 65.7508 20.0957 65.6537 20.4392C65.6172 20.5655 65.6375 20.6247 65.7791 20.6642C66.1392 20.7668 66.4953 20.8892 66.8555 20.9958C66.9769 21.0314 67.0133 21.0866 66.9688 21.209C66.8514 21.5446 66.7543 21.8881 66.6289 22.2197C66.5682 22.3856 66.6167 22.4487 66.7705 22.504C67.1549 22.6422 67.5312 22.7962 67.9318 22.9501C67.8954 23.0567 67.8671 23.1515 67.8307 23.2423C67.7133 23.5344 67.6 23.8305 67.4746 24.1227C67.4179 24.253 67.4381 24.3162 67.5798 24.3754C67.9682 24.5412 68.3446 24.7268 68.7411 24.9123C68.559 25.2913 68.3931 25.6585 68.207 26.0138C68.1301 26.1639 68.1544 26.2428 68.3122 26.3178C68.6764 26.4994 69.0325 26.7008 69.4047 26.9021C69.3683 26.9772 69.34 27.0324 69.3076 27.0916C69.1539 27.368 68.996 27.6444 68.8423 27.9207C68.7047 28.1734 68.7047 28.1734 68.9556 28.3274C69.2833 28.5287 69.6111 28.734 69.951 28.9433C69.7406 29.2749 69.5383 29.5868 69.34 29.8987C69.1741 30.1593 69.1741 30.1632 69.429 30.3488C69.7365 30.5699 70.0481 30.7831 70.3516 31.0002C70.3395 31.0358 70.3354 31.0476 70.3273 31.0595C70.1088 31.3595 69.8863 31.6596 69.6678 31.9557C69.4978 32.1886 69.4978 32.1886 69.7285 32.3663C70.0319 32.6031 70.3314 32.844 70.643 33.0927C70.3273 33.4757 70.0238 33.8389 69.7163 34.21C69.9348 34.4114 70.1291 34.6009 70.3354 34.7825C70.4892 34.9167 70.651 35.043 70.8089 35.1694C70.8089 35.1812 70.8089 35.197 70.8089 35.2089C70.469 35.5484 70.1331 35.8919 69.7811 36.2433C70.0441 36.5157 70.2828 36.7723 70.5297 37.021C70.6146 37.1079 70.7158 37.1829 70.8089 37.2619C70.8331 37.2895 70.8331 37.3053 70.8331 37.3171ZM4.38593 35.9195C4.07839 52.5803 17.6462 67.3658 35.997 67.6659C52.9153 67.9423 67.7983 55.0045 68.47 37.5145C69.1255 20.4352 55.5051 5.83132 37.6601 5.14436C19.9932 4.46529 4.70965 18.0506 4.38593 35.9195Z" fill="white"/>
<path d="M36.1264 67.053C18.9376 67.0689 4.84388 53.1816 5.06207 35.9769C5.27218 19.4141 18.9578 5.63438 36.3204 5.7221C53.4446 5.80583 67.2595 19.5776 67.2191 36.4952C67.1787 53.349 53.2628 67.053 36.1264 67.053ZM66.5766 36.1164C66.4473 19.3184 52.2162 5.63039 34.7607 6.36403C18.5093 7.04983 4.93277 20.678 5.72877 37.8588C6.46417 53.6999 20.069 67.065 37.3992 66.3911C53.6385 65.7691 66.7261 52.4679 66.5766 36.1164Z" fill="white"/>
<path d="M37.7017 25.8731C37.6565 26.0537 37.634 26.2167 37.5707 26.3665C37.5391 26.437 37.4397 26.5295 37.372 26.5295C36.1073 26.5383 34.8427 26.5339 33.578 26.5339C33.5645 26.5339 33.5464 26.5207 33.4922 26.5031C33.5599 26.1903 33.6322 25.8687 33.7045 25.5471C33.8761 24.741 34.0522 23.9348 34.2239 23.1287C34.251 23.0009 34.3052 22.9172 34.4542 22.9172C35.6511 22.9216 36.8481 22.9172 38.045 22.9216C38.0856 22.9216 38.1263 22.9392 38.1985 22.9569C38.1443 23.2036 38.1037 23.4458 38.0314 23.6793C38.0133 23.7322 37.8869 23.7806 37.8101 23.7806C37.1597 23.7895 36.5093 23.785 35.8634 23.7895C35.4795 23.7895 35.466 23.8027 35.4614 24.2432C36.1118 24.2432 36.7622 24.2432 37.4488 24.2432C37.381 24.556 37.3268 24.8291 37.2591 25.1375C36.9023 25.1375 36.5454 25.1375 36.1886 25.1375C35.9989 25.1375 35.8137 25.1375 35.624 25.1375C35.195 25.1375 35.195 25.1375 35.1498 25.6C35.2221 25.6044 35.2898 25.6176 35.3621 25.6176C36.0125 25.6176 36.6629 25.622 37.3088 25.6176C37.4759 25.6176 37.6701 25.6837 37.792 25.4855C37.8101 25.4546 37.9049 25.459 37.9637 25.459C38.3973 25.4546 38.8354 25.4546 39.269 25.459C39.3458 25.459 39.4406 25.4855 39.4903 25.5339C39.7116 25.763 40.3349 25.8511 40.5969 25.6661C40.6601 25.6176 40.7324 25.5031 40.7143 25.4414C40.6917 25.3665 40.5924 25.2696 40.5111 25.2564C40.1362 25.1859 39.7523 25.1507 39.3729 25.089C39.1199 25.0493 38.867 25.0053 38.6276 24.9172C38.1308 24.7322 37.9682 24.3093 38.1579 23.8203C38.3702 23.2696 38.8218 23.0318 39.3638 22.9304C40.1226 22.7939 40.895 22.7718 41.6538 22.9392C41.9564 23.0097 42.2364 23.1771 42.5481 23.3093C42.5752 23.2212 42.6158 23.0846 42.6565 22.9392C44.025 22.9392 45.3845 22.9392 46.744 22.9392C46.7531 22.9877 46.7621 23.0097 46.7576 23.0318C46.6943 23.2873 46.7034 23.6397 46.5363 23.7762C46.3691 23.9084 46.0168 23.8291 45.7458 23.8291C45.2219 23.8335 45.2264 23.8291 45.1225 24.3225C44.978 25.0053 44.8244 25.6881 44.6664 26.3709C44.6528 26.4282 44.5896 26.5207 44.5489 26.5251C44.1153 26.5383 43.6817 26.5339 43.212 26.5339C43.4062 25.6264 43.5959 24.7498 43.7947 23.8379C43.4062 23.8379 43.0178 23.741 42.7197 23.8599C42.1822 24.0758 41.6538 23.9128 41.1298 23.9701C41.0621 23.9789 40.9672 23.9084 40.9176 23.8511C40.7324 23.6177 40.0052 23.5384 39.7794 23.741C39.6393 23.8643 39.671 24.0273 39.8742 24.067C40.2672 24.1463 40.6646 24.1903 41.0576 24.2608C41.3828 24.3225 41.7125 24.3753 42.0241 24.4767C42.3358 24.578 42.4803 24.8291 42.4803 25.1595C42.4803 25.7366 42.0919 26.2299 41.4053 26.437C40.5111 26.7101 39.5897 26.7366 38.6728 26.5559C38.1534 26.4502 38.0314 26.3401 37.7017 25.8731Z" fill="white"/>
<path d="M55.75 26.5384C55.899 25.8335 56.0436 25.1683 56.1881 24.5031C56.2875 24.0494 56.3914 23.5913 56.4817 23.1375C56.5133 22.9833 56.5765 22.9084 56.7527 22.9128C57.1727 22.9217 57.5883 22.9217 58.0083 22.9128C58.1664 22.9084 58.2567 22.9613 58.3245 23.1067C58.5639 23.6309 58.8123 24.1507 59.0607 24.6705C59.1013 24.7542 59.142 24.8335 59.2233 24.9877C59.2865 24.7322 59.3407 24.5516 59.3814 24.3666C59.4717 23.9525 59.553 23.534 59.6569 23.1243C59.675 23.045 59.7879 22.9349 59.8647 22.9349C60.2531 22.9173 60.646 22.9261 61.0751 22.9261C60.9983 23.2961 60.9261 23.6441 60.8538 23.9877C60.6912 24.7454 60.5151 25.4987 60.3615 26.2564C60.3163 26.4811 60.2215 26.5604 59.9911 26.5472C59.6162 26.5295 59.2414 26.5384 58.8665 26.5428C58.731 26.5472 58.6587 26.4987 58.5955 26.3754C58.2793 25.7498 57.9496 25.1331 57.5883 24.4415C57.5431 24.5956 57.5115 24.6838 57.4934 24.7719C57.376 25.2917 57.2586 25.8115 57.1547 26.3313C57.1231 26.4987 57.0463 26.5472 56.8792 26.5428C56.5043 26.5339 56.1384 26.5384 55.75 26.5384Z" fill="white"/>
<path d="M51.1055 24.2344C50.8932 24.437 50.6855 24.6397 50.4641 24.8511C50.7577 25.0097 50.7216 25.2917 50.6764 25.5824C50.6313 25.8908 50.6042 26.2036 50.5635 26.5383C50.1344 26.5383 49.6647 26.5428 49.1995 26.5295C49.1498 26.5295 49.064 26.415 49.064 26.3577C49.0685 26.1683 49.1092 25.9789 49.1317 25.7895C49.1588 25.5824 49.055 25.4591 48.8517 25.4503C48.5446 25.4326 48.2374 25.4326 47.9303 25.4458C47.8761 25.4458 47.7993 25.5428 47.7813 25.6044C47.7135 25.8467 47.6638 26.089 47.6141 26.3357C47.587 26.4811 47.5238 26.5472 47.3612 26.5428C46.9683 26.5339 46.5798 26.5383 46.1372 26.5383C46.205 26.1991 46.2592 25.8908 46.3224 25.5868C46.4985 24.7718 46.6882 23.9613 46.8554 23.1463C46.8915 22.9657 46.9728 22.9128 47.1444 22.9172C48.2013 22.9305 49.2627 22.9393 50.3196 22.9481C50.4145 22.9481 50.5048 22.9657 50.5996 22.9833C51.0784 23.089 51.2817 23.393 51.1958 23.8644C51.1733 23.9965 51.1281 24.1199 51.092 24.252C51.101 24.252 51.1055 24.2344 51.1055 24.2344ZM48.0387 24.4679C48.4588 24.4679 48.8336 24.4723 49.213 24.4635C49.2672 24.4635 49.344 24.437 49.3711 24.3974C49.4434 24.2873 49.5428 24.1551 49.5292 24.045C49.5202 23.9657 49.344 23.8556 49.2401 23.8467C48.9285 23.8203 48.6123 23.8335 48.2962 23.8379C48.2465 23.8379 48.1697 23.8776 48.1607 23.9128C48.111 24.0934 48.0794 24.2785 48.0387 24.4679Z" fill="white"/>
<path d="M33.0569 24.829C33.4002 25.0316 33.337 25.318 33.3054 25.6043C33.2692 25.8995 33.2376 26.1902 33.2015 26.5382C32.9847 26.5382 32.7046 26.5382 32.4291 26.5382C32.3162 26.5382 32.2078 26.5382 32.0949 26.5382C31.6523 26.5382 31.6387 26.5206 31.72 26.0845C31.8284 25.5162 31.7652 25.4369 31.178 25.4325C31.0154 25.4325 30.8528 25.4457 30.6902 25.4281C30.4915 25.4061 30.4192 25.4942 30.3921 25.6704C30.3515 25.9083 30.2973 26.1462 30.2385 26.3796C30.225 26.4369 30.1527 26.525 30.1076 26.5294C29.674 26.5426 29.2404 26.5382 28.7661 26.5382C28.87 26.0581 28.9648 25.6131 29.0597 25.1682C29.2042 24.4942 29.3533 23.8158 29.4978 23.1418C29.5249 23.0184 29.543 22.9215 29.7101 22.9259C30.776 22.9391 31.8465 22.9347 32.9124 22.9524C33.2963 22.9612 33.7028 23.014 33.8157 23.4546C33.9332 23.9039 33.748 24.2872 33.4002 24.5911C33.3054 24.6704 33.197 24.7321 33.0569 24.829ZM30.6631 24.525C31.1148 24.4986 31.5213 24.4898 31.9187 24.4413C32.122 24.4149 32.2214 24.2211 32.1762 24.0449C32.1536 23.9523 31.9729 23.8554 31.8555 23.8466C31.5619 23.8158 31.2593 23.829 30.9612 23.8422C30.898 23.8422 30.8031 23.8907 30.7851 23.9391C30.7354 24.1021 30.7128 24.2827 30.6631 24.525Z" fill="white"/>
<path d="M51.1071 24.2346L51.098 24.2522C51.6987 23.076 52.7782 22.8117 53.9932 22.8338C54.341 22.8426 54.6978 22.8778 55.0275 22.9747C55.8315 23.2082 56.1747 23.8073 56.0121 24.6135C55.7908 25.7104 55.1314 26.3756 53.9932 26.543C53.4286 26.6267 52.8324 26.6399 52.2678 26.565C51.1342 26.4064 50.7006 25.6751 51.0122 24.5959C51.0438 24.4769 51.0755 24.3536 51.1071 24.2346ZM53.2028 25.7148C54.0022 25.7148 54.5804 25.0144 54.4087 24.2434C54.3591 24.0276 54.2236 23.8734 54.0022 23.7985C53.2931 23.5562 52.5614 24.0188 52.453 24.7765C52.3627 25.4152 52.5976 25.7148 53.2028 25.7148Z" fill="white"/>
<path d="M27.274 54.036C26.9669 54.036 26.6959 54.0492 26.4294 54.0272C26.3571 54.0228 26.2668 53.9171 26.2306 53.8422C26.0816 53.4986 25.9371 53.1506 25.8151 52.7937C25.7609 52.644 25.6886 52.5823 25.5215 52.5867C24.7763 52.5955 24.0355 52.5955 23.2903 52.5867C23.1096 52.5823 23.0329 52.6572 22.9787 52.8114C22.8477 53.1726 22.6941 53.525 22.5631 53.8862C22.518 54.0096 22.4502 54.0492 22.3192 54.0448C22.0753 54.036 21.8269 54.0404 21.5469 54.0404C21.6598 53.7453 21.7592 53.4809 21.863 53.221C22.4909 51.666 23.1232 50.1109 23.751 48.5515C23.8052 48.4237 23.8684 48.3488 24.031 48.3532C24.3382 48.3665 24.713 48.2563 24.9344 48.3929C25.1512 48.5251 25.2189 48.8951 25.3318 49.1726C25.9551 50.7056 26.5739 52.2387 27.1927 53.7717C27.2198 53.8422 27.2378 53.9215 27.274 54.036ZM25.377 51.7056C25.0518 50.8907 24.7447 50.1065 24.433 49.3268C24.4104 49.3268 24.3878 49.3312 24.3653 49.3312C24.0536 50.1153 23.742 50.8951 23.4213 51.7056C24.0897 51.7056 24.704 51.7056 25.377 51.7056Z" fill="white"/>
<path d="M33.5254 43.8025C33.024 44.2651 32.4369 44.3972 31.791 44.2474C31.3664 44.1505 31.0322 43.9082 30.7792 43.569C30.1921 42.7761 30.2508 41.5911 30.9147 40.8863C31.5787 40.177 32.4143 40.1418 33.5163 40.7849C33.5299 40.7761 33.5479 40.7629 33.5525 40.7541C33.5841 40.4105 33.5841 40.4105 33.9499 40.4105C34.0854 40.4105 34.2209 40.4105 34.388 40.4105C34.3971 40.4986 34.4151 40.5779 34.4151 40.6528C34.4151 41.7761 34.4016 42.9038 34.4151 44.0272C34.4242 45.1549 33.6925 45.9126 32.4775 45.9787C31.9039 46.0095 31.3574 45.9038 30.838 45.6659C30.6754 45.591 30.6212 45.5029 30.716 45.3399C30.8018 45.1901 30.8696 45.0272 30.9509 44.8598C31.4296 45.0976 31.9084 45.2562 32.4369 45.2254C33.2182 45.1681 33.6699 44.6175 33.5254 43.8025ZM32.4369 43.5162C33.1369 43.5206 33.6292 43.0316 33.6292 42.3268C33.6338 41.6043 33.1505 41.0977 32.4459 41.0933C31.7774 41.0889 31.2761 41.5823 31.2716 42.2519C31.2625 43.014 31.7187 43.5074 32.4369 43.5162Z" fill="white"/>
<path d="M32.4517 53.0226C32.655 52.3794 32.8627 51.7363 33.066 51.0975C33.1473 50.842 33.215 50.5821 33.3144 50.3354C33.346 50.2605 33.4589 50.1768 33.5402 50.168C33.757 50.146 33.9829 50.1592 34.2448 50.1592C34.15 50.4632 34.0687 50.7363 33.9738 51.0094C33.6667 51.9169 33.346 52.8244 33.0479 53.7319C32.9756 53.9477 32.8853 54.049 32.6233 54.0446C31.9097 54.0226 31.9142 54.0358 31.6884 53.3618C31.4671 52.6878 31.2322 52.0182 31.0064 51.3486C30.9883 51.2958 30.9612 51.2473 30.9115 51.1416C30.8302 51.3706 30.7625 51.5469 30.7038 51.7275C30.4689 52.4235 30.2295 53.1151 29.9992 53.8156C29.945 53.983 29.8592 54.0446 29.6695 54.0446C28.9061 54.0402 28.9107 54.0446 28.6713 53.3398C28.3461 52.3662 28.0118 51.3971 27.6821 50.4235C27.655 50.3486 27.637 50.2693 27.6099 50.1592C27.8854 50.1592 28.1338 50.146 28.3732 50.168C28.4409 50.1724 28.5313 50.2826 28.5538 50.3574C28.8203 51.1636 29.0778 51.9786 29.3352 52.7891C29.3578 52.864 29.3894 52.9389 29.4798 53.0138C29.6469 52.5116 29.814 52.0138 29.9856 51.5116C30.1166 51.124 30.2476 50.7363 30.3695 50.3486C30.4147 50.2077 30.4915 50.1592 30.6451 50.1548C31.3858 50.1416 31.3903 50.1328 31.6252 50.8112C31.8645 51.5028 32.0994 52.1988 32.3343 52.8949C32.3478 52.9389 32.3704 52.9786 32.3885 53.0226C32.4111 53.027 32.4336 53.0226 32.4517 53.0226Z" fill="white"/>
<path d="M28.9862 24.4326C28.4985 24.4326 28.0242 24.437 27.5454 24.4238C27.4867 24.4238 27.3964 24.3313 27.3828 24.2696C27.297 23.9216 27.1886 23.7718 26.8273 23.763C26.5698 23.7542 26.2763 23.8115 26.0504 23.926C25.6168 24.1507 25.3729 24.8247 25.531 25.2784C25.5762 25.4062 25.6846 25.5471 25.802 25.6176C26.1859 25.8467 26.8318 25.7013 27.0893 25.3313C27.1931 25.1815 27.3061 25.1242 27.4867 25.1286C27.8977 25.1419 28.3088 25.1331 28.7153 25.1375C28.7378 25.1375 28.7649 25.1463 28.8417 25.1639C28.7695 25.3093 28.7198 25.4546 28.634 25.578C28.2952 26.0714 27.8119 26.3665 27.2248 26.4987C26.4072 26.6837 25.5852 26.7233 24.7812 26.4326C24.1534 26.2035 23.8463 25.6837 23.9321 25.0317C24.1128 23.7102 24.9574 22.9392 26.3395 22.8511C26.9809 22.8071 27.6222 22.7895 28.232 23.0362C28.8462 23.2784 29.1172 23.763 28.9862 24.4326Z" fill="white"/>
<path d="M46.6249 50.6219C46.6249 50.4589 46.6249 50.3708 46.6249 50.2871C46.6249 49.6703 46.6294 49.0536 46.6204 48.4369C46.6204 48.2739 46.652 48.2034 46.8462 48.199C47.4785 48.1946 47.4785 48.1902 47.4785 48.8113C47.4785 50.428 47.4785 52.0403 47.4785 53.6571C47.4785 53.7716 47.4785 53.8861 47.4785 54.0183C47.1804 54.0183 46.9139 54.0183 46.6384 54.0183C46.6294 53.8861 46.6204 53.7716 46.6068 53.5998C46.1055 54.1064 45.5228 54.2253 44.877 54.0712C44.4117 53.961 44.0459 53.7055 43.7613 53.3267C43.1923 52.5646 43.2736 51.3311 43.9465 50.6439C44.3033 50.2783 44.7505 50.0888 45.2654 50.058C45.7803 50.0316 46.2184 50.199 46.6249 50.6219ZM46.6746 52.0888C46.6655 51.3399 46.1687 50.8377 45.446 50.8465C44.764 50.8553 44.2537 51.3928 44.2627 52.0932C44.2717 52.8333 44.7821 53.3619 45.4912 53.3531C46.1913 53.3443 46.6836 52.8201 46.6746 52.0888Z" fill="white"/>
<path d="M38.0388 50.5954C38.084 50.1593 38.084 50.1593 38.4724 50.1593C38.6079 50.1593 38.7434 50.1593 38.8925 50.1593C38.8925 51.4544 38.8925 52.7231 38.8925 54.0139C38.6305 54.0139 38.364 54.0139 38.0749 54.0139C38.0659 53.8993 38.0524 53.776 38.0388 53.6086C37.5646 54.0755 37.0226 54.2121 36.4038 54.0976C35.9431 54.0095 35.5546 53.7848 35.2656 53.428C34.6333 52.6571 34.6739 51.4104 35.3469 50.6835C35.7037 50.3003 36.1508 50.0976 36.6748 50.0668C37.1942 50.0315 37.6459 50.1901 38.0388 50.5954ZM38.1111 52.1064C38.1156 51.3795 37.6142 50.8509 36.9187 50.8421C36.2186 50.8377 35.6901 51.3663 35.6947 52.0756C35.6992 52.82 36.2005 53.3531 36.9006 53.3531C37.5962 53.3575 38.1066 52.8289 38.1111 52.1064Z" fill="white"/>
<path d="M42.1128 40.8554C42.1218 40.7144 42.1309 40.6571 42.1263 40.5999C42.1173 40.4633 42.167 40.4016 42.316 40.406C43.12 40.4237 42.971 40.2827 42.98 41.0096C42.989 42.0007 42.98 42.9919 42.98 43.9831C42.98 44.0712 42.98 44.1637 42.98 44.2694C42.6954 44.2694 42.4335 44.2694 42.1444 44.2694C42.1309 44.1505 42.1218 44.0315 42.1038 43.8597C41.6024 44.3443 41.0378 44.4765 40.3965 44.3223C39.9403 44.2122 39.5699 43.9699 39.2944 43.6042C38.7163 42.8465 38.766 41.6527 39.3938 40.9567C39.7416 40.569 40.1887 40.3576 40.7081 40.3135C41.2321 40.2695 41.6973 40.4193 42.1128 40.8554ZM42.176 42.3311C42.167 41.5999 41.6702 41.0844 40.9656 41.0933C40.2519 41.1021 39.7641 41.6219 39.7732 42.3752C39.7777 43.0976 40.2971 43.613 40.9972 43.6042C41.6927 43.591 42.1851 43.0624 42.176 42.3311Z" fill="white"/>
<path d="M29.3605 43.8243C28.7101 44.4147 27.5357 44.5512 26.7408 44.1503C26.0181 43.7847 25.6342 42.9521 25.7291 42.0711C25.9007 40.5248 27.3777 40.0314 28.4345 40.4543C29.2746 40.7891 29.6811 41.7627 29.5231 42.6393C28.5655 42.6393 27.608 42.6393 26.646 42.6393C26.6369 43.6173 27.6622 43.8948 28.9585 43.2781C29.0895 43.4543 29.2204 43.6349 29.3605 43.8243ZM26.6279 41.9918C27.3144 41.9918 27.9874 41.9918 28.6559 41.9918C28.6468 41.4763 28.2584 41.0755 27.7525 41.0402C27.1518 41.005 26.7318 41.353 26.6279 41.9918Z" fill="white"/>
<path d="M50.1133 42.362C50.1043 41.2166 51.0167 40.318 52.1955 40.3091C53.4512 40.3003 54.3906 41.1638 54.3906 42.3312C54.3951 43.4897 53.4828 44.3708 52.2768 44.384C51.0528 44.3972 50.1224 43.5294 50.1133 42.362ZM51.0076 42.3356C51.0031 43.0712 51.518 43.5999 52.2452 43.6043C52.9543 43.6087 53.5008 43.0756 53.5054 42.3708C53.5099 41.6263 52.995 41.0977 52.2723 41.0933C51.5271 41.0889 51.0122 41.5955 51.0076 42.3356Z" fill="white"/>
<path d="M56.3614 40.8155C57.0254 40.2604 57.7029 40.1503 58.3804 40.4983C58.8727 40.7538 59.1482 41.1635 59.1617 41.7009C59.1843 42.4939 59.1662 43.2824 59.1708 44.0754C59.1708 44.2384 59.1166 44.2868 58.9494 44.2912C58.3262 44.3 58.3262 44.3045 58.3262 43.6965C58.3262 43.1459 58.3307 42.5952 58.3126 42.049C58.2945 41.4454 57.9468 41.1106 57.3822 41.1106C56.7724 41.1106 56.3524 41.4895 56.3388 42.0754C56.3253 42.7318 56.3253 43.3926 56.3343 44.0489C56.3343 44.2296 56.2892 44.2956 56.0904 44.2956C55.4852 44.2912 55.4852 44.3 55.4852 43.7009C55.4852 42.6921 55.4897 41.6833 55.4807 40.6789C55.4762 40.4675 55.5439 40.3882 55.7562 40.4146C55.7878 40.419 55.8239 40.4146 55.8601 40.4146C56.2892 40.4058 56.2892 40.4058 56.3614 40.8155Z" fill="white"/>
<path d="M17.2034 44.287C17.2034 42.9786 17.2034 41.7099 17.2034 40.4104C17.3434 40.4104 17.4699 40.4104 17.5918 40.4104C17.9893 40.4104 17.9893 40.4104 18.057 40.7936C18.1112 40.7584 18.1564 40.732 18.197 40.6967C18.9152 40.0756 20.0985 40.2077 20.6225 40.9919C20.7489 41.1813 20.8438 41.4192 20.8483 41.6394C20.8754 42.4897 20.8573 43.3355 20.8573 44.1857C20.8573 44.2077 20.8438 44.2341 20.8302 44.287C20.618 44.287 20.3966 44.2826 20.1798 44.287C20.0082 44.2914 20.0218 44.1725 20.0218 44.0623C20.0218 43.4941 20.0218 42.9302 20.0218 42.3619C20.0218 42.2386 20.0172 42.1108 20.0127 41.9875C19.9811 41.4368 19.6333 41.1064 19.0823 41.102C18.5177 41.0976 18.0661 41.472 18.048 41.9963C18.0254 42.6703 18.0299 43.3443 18.039 44.0183C18.0435 44.2253 17.9802 44.3046 17.7634 44.287C17.5873 44.2738 17.4066 44.287 17.2034 44.287Z" fill="white"/>
<path d="M51.9228 50.4855C51.8144 50.6881 51.7105 50.8776 51.6066 51.067C51.2814 50.9789 50.9698 50.8643 50.6491 50.8159C50.4142 50.7806 50.1568 50.8115 49.9174 50.8599C49.7322 50.8996 49.5831 51.0361 49.5877 51.252C49.5877 51.4723 49.7593 51.5516 49.9354 51.5956C50.1387 51.6485 50.3555 51.6661 50.5633 51.7101C50.8433 51.7718 51.1369 51.8159 51.3988 51.9304C52.1847 52.2784 52.2796 53.252 51.584 53.763C51.1595 54.0758 50.6626 54.1374 50.1522 54.1286C49.5786 54.1154 49.0411 53.9832 48.5398 53.6396C48.6527 53.459 48.743 53.2828 48.8695 53.133C48.9011 53.0934 49.0502 53.1022 49.1179 53.1374C49.6193 53.415 50.1522 53.4634 50.7033 53.3577C50.8026 53.3401 50.8975 53.296 50.9833 53.2432C51.2408 53.0802 51.2498 52.763 50.9698 52.6441C50.7033 52.5339 50.3961 52.5075 50.1116 52.437C49.8632 52.3797 49.6057 52.3357 49.3709 52.2432C48.9779 52.089 48.734 51.7982 48.7024 51.3709C48.6708 50.9392 48.8334 50.5868 49.2083 50.3401C49.8632 49.9128 51.2543 49.9789 51.9228 50.4855Z" fill="white"/>
<path d="M47.0538 40.4415C47.0538 40.6794 47.0538 40.9128 47.0538 41.1727C46.6519 41.1727 46.2634 41.1727 45.8705 41.1727C45.5408 41.1727 45.5408 41.1683 45.5363 41.4987C45.5363 41.9393 45.5317 42.3798 45.5363 42.8203C45.5408 43.4679 45.9021 43.7234 46.5435 43.5295C46.679 43.4855 46.8099 43.4282 46.9861 43.3621C47.0764 43.5384 47.1803 43.7146 47.2616 43.8996C47.2797 43.9392 47.23 44.045 47.1803 44.0714C46.7829 44.3093 46.3493 44.4238 45.884 44.3621C45.0846 44.2564 44.7007 43.8027 44.6826 42.9481C44.6736 42.4591 44.6826 41.9657 44.6826 41.4767C44.6826 41.3886 44.6736 41.2961 44.6691 41.1771C44.4116 41.1771 44.1677 41.1771 43.9148 41.1771C43.9148 40.9128 43.9148 40.6794 43.9148 40.415C44.1587 40.415 44.4026 40.415 44.6871 40.415C44.6871 40.0714 44.6962 39.7587 44.6826 39.4459C44.6781 39.2785 44.7278 39.2124 44.913 39.2124C45.6763 39.2256 45.5317 39.1287 45.5408 39.8115C45.5498 40.4062 45.5408 40.4062 46.1415 40.4062C46.4215 40.4062 46.7061 40.4106 46.9861 40.415C46.9996 40.415 47.0177 40.4283 47.0538 40.4415Z" fill="white"/>
<path d="M24.8954 41.1725C24.4663 41.1725 24.0507 41.1813 23.6352 41.1681C23.45 41.1637 23.3732 41.2122 23.3778 41.4016C23.3913 41.8862 23.3778 42.3663 23.3868 42.8509C23.3958 43.4677 23.7707 43.7232 24.3759 43.5425C24.385 43.5381 24.394 43.5381 24.3985 43.5337C24.8908 43.3796 24.9225 43.3884 25.0941 43.8685C25.1122 43.9258 25.0851 44.0359 25.0399 44.0712C24.5973 44.4236 23.6262 44.4765 23.1384 44.1901C22.6732 43.917 22.5557 43.4721 22.5377 42.9919C22.5196 42.4941 22.5331 41.9919 22.5331 41.4941C22.5331 41.406 22.5331 41.3135 22.5331 41.1769C22.3164 41.1769 22.1221 41.1901 21.9324 41.1681C21.8647 41.1593 21.806 41.0624 21.7427 41.0051C21.7382 41.0007 21.7427 40.9875 21.7427 40.9787C21.6931 40.4148 21.6931 40.4148 22.2622 40.406C22.3389 40.406 22.4157 40.4016 22.5377 40.3928C22.5377 40.0756 22.5467 39.7628 22.5331 39.4501C22.5241 39.2606 22.5964 39.2122 22.7816 39.2122C23.3823 39.2078 23.3823 39.2034 23.3823 39.7849C23.3823 40.406 23.3823 40.406 24.0056 40.406C24.2946 40.406 24.5837 40.406 24.8954 40.406C24.8954 40.6615 24.8954 40.895 24.8954 41.1725Z" fill="white"/>
<path d="M14.778 41.4191C14.778 40.5689 14.7825 39.7231 14.7734 38.8729C14.7734 38.6791 14.8096 38.5954 15.0399 38.5998C15.6858 38.6086 15.6858 38.5998 15.6858 39.2253C15.6858 40.8244 15.6813 42.4191 15.6903 44.0182C15.6903 44.2164 15.6452 44.2957 15.4238 44.2913C14.7825 44.2825 14.7825 44.2913 14.7825 43.6658C14.778 42.9169 14.778 42.168 14.778 41.4191Z" fill="white"/>
<path d="M36.4173 32.4325C36.2095 32.9391 35.9972 33.4457 35.7894 33.9523C35.7488 34.0536 35.6946 34.1506 35.6675 34.2519C35.6178 34.4501 35.5004 34.5074 35.2971 34.503C35.1165 34.503 35.0261 34.4501 34.9584 34.2827C34.7506 33.7541 34.5248 33.2343 34.3035 32.71C34.2673 32.6219 34.2222 32.5338 34.1318 32.4501C34.1228 32.5118 34.1048 32.5691 34.1048 32.6308C34.1002 33.2739 34.0957 33.9127 34.1048 34.5558C34.1093 34.7409 34.046 34.8069 33.8563 34.8025C33.6757 34.8025 33.6215 34.7365 33.626 34.5646C33.6305 33.6968 33.635 32.8334 33.626 31.9656C33.626 31.7938 33.6937 31.7585 33.8518 31.7585C34.3532 31.7585 34.3577 31.7497 34.5474 32.1902C34.7732 32.71 34.99 33.2387 35.2113 33.7585C35.2294 33.8025 35.2565 33.8422 35.3017 33.9303C35.3559 33.8158 35.401 33.7409 35.4326 33.6616C35.654 33.1374 35.8843 32.6175 36.0785 32.0889C36.1734 31.8378 36.3043 31.7409 36.5799 31.7541C36.9683 31.7717 36.9728 31.7585 36.9728 32.1374C36.9728 32.9215 36.9728 33.7012 36.9728 34.4854C36.9728 34.6439 36.9999 34.7981 36.7425 34.7981C36.4895 34.8025 36.4986 34.666 36.4986 34.4942C36.5031 33.8951 36.4986 33.2959 36.5031 32.6968C36.5031 32.6087 36.5031 32.5206 36.5031 32.4369C36.4805 32.4413 36.4489 32.4369 36.4173 32.4325Z" fill="white"/>
<path d="M17.3559 24.1329C17.0939 24.1682 16.8816 24.1726 16.6829 24.2342C16.4525 24.3047 16.2086 24.3928 16.0144 24.5294C15.5673 24.851 15.5853 25.3355 16.0325 25.6527C16.588 26.0404 17.2294 26.2078 17.8933 26.3047C19.3658 26.5161 20.7976 26.3135 22.2113 25.8994C22.2971 25.873 22.3874 25.8554 22.5365 25.8157C22.279 26.2606 21.9357 26.5205 21.5383 26.7144C20.6756 27.1373 19.7587 27.199 18.8193 27.0888C17.7262 26.9611 16.6964 26.6571 15.8202 25.9875C14.9575 25.3267 15.1337 24.6792 16.0776 24.2519C16.4299 24.0933 16.9674 24.0536 17.3559 24.1329Z" fill="white"/>
<path d="M12.9414 23.4945C13.0995 23.3227 13.2124 23.1773 13.3524 23.0539C13.8944 22.5694 14.5629 22.3315 15.281 22.2742C16.8031 22.1465 18.2394 22.424 19.5222 23.2742C19.7299 23.4108 19.9106 23.6002 20.0642 23.7984C20.3216 24.1376 20.2584 24.4945 19.9422 24.7764C19.4318 25.2345 18.8221 25.3094 18.1672 25.2389C18.4201 25.1949 18.673 25.1685 18.9215 25.1024C19.0931 25.0583 19.2602 24.9834 19.4093 24.8909C19.9151 24.5737 19.9287 24.0451 19.4409 23.7015C18.9395 23.3491 18.3569 23.1817 17.7562 23.0848C16.2431 22.8425 14.7661 23.0275 13.3118 23.4636C13.2395 23.4857 13.1627 23.5033 13.0905 23.5253C13.0679 23.5253 13.0498 23.5165 12.9414 23.4945Z" fill="white"/>
<path d="M18.4877 24.2302C17.5934 23.7148 16.6629 23.7721 15.7325 24.1069C15.1589 24.3139 14.8382 24.7368 14.924 25.2346C14.9647 25.4813 15.1182 25.7324 15.2854 25.9262C15.7099 26.4152 16.2926 26.6839 16.8933 26.913C17.2185 27.0364 17.5527 27.1333 17.887 27.2434C17.9547 27.2654 18.0225 27.2919 18.158 27.3447C18.0089 27.3844 17.9321 27.4152 17.8508 27.4196C16.8888 27.4637 15.9403 27.446 15.0415 27.0452C14.2827 26.706 13.8807 26.0716 14.0252 25.3844C14.1607 24.728 14.6124 24.3095 15.195 24.0144C16.0216 23.6003 16.9023 23.5738 17.7876 23.7765C18.0541 23.8382 18.2889 24.0232 18.5374 24.1553C18.5238 24.1774 18.5057 24.2038 18.4877 24.2302Z" fill="white"/>
<path d="M22.134 23.1685C22.5585 23.3799 22.9153 23.653 23.1186 24.0759C23.2812 24.4151 23.1683 24.7896 22.8386 25.0847C22.4004 25.4768 21.8585 25.6839 21.2984 25.8424C20.097 26.1772 18.8729 26.2962 17.6309 26.0891C17.1792 26.0143 16.7546 25.8645 16.4204 25.5385C16.0591 25.1861 16.1133 24.8336 16.5243 24.5914C16.5017 24.7499 16.4114 24.9526 16.4611 25.1112C16.5559 25.4019 16.8359 25.5517 17.116 25.6706C17.9786 26.0275 18.8549 25.9438 19.7266 25.7367C20.3318 25.5958 20.8829 25.3403 21.3526 24.935C21.8223 24.5297 22.0662 24.0319 22.0617 23.4196C22.0617 23.3623 22.0662 23.305 22.0753 23.2478C22.0888 23.2345 22.1024 23.2213 22.134 23.1685Z" fill="white"/>
<path d="M16.9609 25.1199C17.9772 25.6838 18.9799 25.6177 19.969 25.1552C20.6285 24.8468 20.7685 24.1419 20.3213 23.5781C19.9103 23.0583 19.3457 22.7499 18.7405 22.512C18.2979 22.3402 17.8462 22.1992 17.3539 22.0318C17.4442 22.001 17.5029 21.9658 17.5571 21.9614C18.474 21.9129 19.3864 21.8997 20.2581 22.2477C20.4252 22.3138 20.5878 22.3887 20.7369 22.4856C21.6357 23.0539 21.7441 24.1067 20.9808 24.8556C20.3304 25.4944 19.5219 25.7146 18.6231 25.7014C18.063 25.6926 17.512 25.6485 17.0603 25.2653C17.0332 25.2433 17.0061 25.2212 16.9835 25.1992C16.9745 25.186 16.9745 25.1684 16.9609 25.1199Z" fill="white"/>
<path d="M18.8882 24.7895C19.1547 24.3798 19.0914 24.1243 18.6578 23.8467C18.1971 23.5516 17.6777 23.4547 17.1447 23.4547C16.3092 23.4547 15.5007 23.6089 14.7554 24.0053C13.9244 24.4459 13.3914 25.0714 13.3959 26.045C13.3959 26.0758 13.3869 26.111 13.3824 26.1419C13.3824 26.1507 13.3733 26.1551 13.3688 26.1639C12.9217 26.0934 12.2984 25.4282 12.2893 24.9921C12.2803 24.6353 12.4881 24.3798 12.7636 24.1771C13.3462 23.741 14.0283 23.5296 14.7329 23.3842C15.8123 23.1595 16.8918 23.0802 17.9848 23.3049C18.4455 23.3974 18.8656 23.5692 19.1682 23.9437C19.4121 24.2608 19.2856 24.6441 18.8882 24.7895Z" fill="white"/>
<path d="M36.6586 44.287C36.4147 44.287 36.2115 44.2826 36.0082 44.287C35.8501 44.2914 35.8004 44.2253 35.805 44.08C35.8095 43.591 35.805 43.0976 35.805 42.6086C35.805 41.9699 35.805 41.3267 35.805 40.6879C35.805 40.6086 35.814 40.5249 35.8185 40.4104C36.0534 40.4104 36.2747 40.4016 36.4915 40.4192C36.5457 40.4236 36.6089 40.5029 36.6405 40.5602C36.6676 40.613 36.6541 40.6835 36.6631 40.8025C37.1825 40.2782 37.7742 40.221 38.4653 40.406C38.402 40.6747 38.3433 40.9346 38.2801 41.2033C38.113 41.1725 37.982 41.1461 37.8465 41.1241C37.1645 41.0095 36.6676 41.4016 36.6586 42.0844C36.6496 42.7143 36.6586 43.3487 36.6586 43.9831C36.6586 44.0712 36.6586 44.1593 36.6586 44.287Z" fill="white"/>
<path d="M41.178 50.5472C41.6342 50.067 42.1717 49.9877 42.7724 50.1066C42.9214 50.1375 42.9892 50.1903 42.935 50.3401C42.9259 50.3621 42.9259 50.3886 42.9169 50.415C42.8672 50.5824 42.8672 50.8027 42.7543 50.8996C42.6685 50.9701 42.4381 50.882 42.2755 50.8643C41.6342 50.7939 41.178 51.1727 41.169 51.8115C41.1554 52.4678 41.1599 53.1286 41.1644 53.785C41.1644 53.97 41.1193 54.0493 40.907 54.0449C40.3063 54.0361 40.3063 54.0449 40.3063 53.4766C40.3063 52.459 40.3108 51.4458 40.3018 50.4282C40.3018 50.2256 40.356 50.1287 40.5728 50.1595C40.6134 50.1639 40.6586 50.1595 40.6992 50.1595C41.0877 50.1595 41.0877 50.1595 41.178 50.5472Z" fill="white"/>
<path d="M37.9059 31.7676C38.353 31.7676 38.8227 31.7676 39.2879 31.7676C39.4325 31.7676 39.577 31.7676 39.7216 31.7676C40.119 31.7676 40.119 31.7676 40.0739 32.1993C39.8435 32.1993 39.6086 32.1993 39.3738 32.1993C39.0983 32.1993 38.8273 32.1993 38.5517 32.1993C38.4072 32.1993 38.3349 32.2522 38.3394 32.4063C38.3485 32.6134 38.344 32.8204 38.344 33.0495C38.9131 33.0495 39.4551 33.0495 39.9926 33.0495C40.0919 33.468 40.0739 33.49 39.6764 33.49C39.3105 33.49 38.9402 33.4944 38.5743 33.49C38.4027 33.4856 38.3349 33.5385 38.3349 33.7147C38.3304 34.3667 38.3214 34.3667 38.9989 34.3667C39.3151 34.3667 39.6312 34.3755 39.9474 34.3711C40.101 34.3667 40.1326 34.4416 40.1281 34.5693C40.1235 34.6927 40.1326 34.8028 39.9519 34.8028C39.3105 34.7984 38.6692 34.8028 38.0323 34.7896C37.9736 34.7896 37.8652 34.6927 37.8607 34.6442C37.8517 33.7103 37.8562 32.7808 37.8607 31.8469C37.8652 31.8337 37.8788 31.816 37.9059 31.7676Z" fill="white"/>
<path d="M32.7993 31.7896C32.7993 31.9305 32.7993 32.0539 32.7993 32.2036C32.3115 32.2036 31.8328 32.2125 31.3585 32.1992C31.1282 32.1948 31.0288 32.2609 31.0514 32.4944C31.0695 32.6662 31.0559 32.8424 31.0559 33.045C31.616 33.045 32.158 33.045 32.7316 33.045C32.7406 33.1948 32.7451 33.3226 32.7542 33.4944C32.3251 33.4944 31.9186 33.4944 31.5121 33.4944C30.9565 33.4944 31.0559 33.4503 31.0559 33.9437C31.0559 34.371 31.0559 34.371 31.5076 34.371C31.8644 34.371 32.2257 34.3754 32.5825 34.371C32.7497 34.3666 32.8355 34.4107 32.8355 34.5957C32.8355 34.7631 32.7587 34.8071 32.6006 34.8071C31.9954 34.8027 31.3901 34.8027 30.7849 34.8071C30.6539 34.8071 30.5771 34.7807 30.5771 34.6265C30.5817 33.7102 30.5817 32.7939 30.5817 31.8777C30.5817 31.8556 30.5952 31.8292 30.6088 31.7896C31.3314 31.7896 32.0586 31.7896 32.7993 31.7896Z" fill="white"/>
<path d="M40.5908 34.7805C40.7625 34.3488 40.9296 33.9435 41.0967 33.5338C41.3135 33.0008 41.5212 32.4633 41.7516 31.9347C41.7832 31.8598 41.9097 31.7805 41.991 31.7761C42.1536 31.7761 42.3749 31.6836 42.4652 31.9039C42.8491 32.8378 43.224 33.7761 43.5989 34.7144C43.6034 34.7276 43.5943 34.7453 43.5898 34.7629C43.1924 34.8598 43.1382 34.829 43.0027 34.4721C42.8356 34.0228 42.8356 34.0228 42.3478 34.0228C42.0903 34.0228 41.8329 34.0316 41.58 34.0228C41.4264 34.0184 41.3361 34.0624 41.2999 34.2122C41.2773 34.2915 41.2412 34.3664 41.2096 34.4457C41.0696 34.8201 41.0696 34.8201 40.5908 34.7805ZM42.6459 33.5735C42.4607 33.1197 42.2981 32.7188 42.131 32.3136C42.1084 32.3136 42.0858 32.3136 42.0632 32.3136C41.9006 32.7232 41.738 33.1285 41.5619 33.5735C41.9458 33.5735 42.271 33.5735 42.6459 33.5735Z" fill="white"/>
<path d="M48.1758 44.2872C48.1758 42.9833 48.1758 41.7146 48.1758 40.4238C48.4513 40.4238 48.7132 40.4238 48.9978 40.4238C49.0023 40.5119 49.0159 40.5912 49.0159 40.6705C49.0159 41.7851 49.0113 42.904 49.0204 44.0185C49.0204 44.2256 48.9617 44.3048 48.7449 44.2872C48.5687 44.274 48.3881 44.2872 48.1758 44.2872Z" fill="white"/>
<path d="M49.1786 39.0627C49.1741 39.3843 48.9031 39.6398 48.5644 39.6354C48.2527 39.631 47.9772 39.3579 47.9727 39.0583C47.9682 38.7235 48.2437 38.4592 48.596 38.468C48.9348 38.468 49.1832 38.7279 49.1786 39.0627Z" fill="white"/>
</g>
</svg>
