<svg width="73" height="72" fill="none" xmlns="http://www.w3.org/2000/svg"><g opacity=".6" fill="#fff"><path d="M70.833 37.317c-.32.292-.64.584-.963.873-.097.087-.097.15-.012.244.235.265.453.541.688.802.121.13.133.21-.024.324-.324.244-.632.509-.968.781.288.391.567.766.866 1.165-.396.284-.785.56-1.185.853.263.402.518.793.789 1.216-.26.162-.506.328-.76.481-.478.293-.482.293-.22.766.142.261.296.514.454.794-.291.158-.57.312-.854.462-.445.237-.445.233-.227.683.134.272.267.545.397.817.004.004 0 .012 0 .044-.283.134-.579.276-.878.41-.445.206-.445.206-.26.64.102.237.191.478.3.71.061.135.053.206-.105.265-.344.118-.672.268-1.015.39-.146.052-.17.115-.122.25.101.28.19.56.283.84.037.111.065.225.106.352-.413.134-.806.268-1.206.387-.138.043-.182.098-.138.24.097.34.174.691.275 1.031.049.162-.016.21-.154.245-.348.083-.687.178-1.035.256-.146.032-.186.095-.154.233.077.36.141.723.222 1.082.029.122-.016.166-.13.19-.363.067-.723.142-1.092.201-.15.024-.21.067-.186.225.057.351.085.707.146 1.054.028.154 0 .21-.17.225-.356.032-.708.095-1.06.127-.182.015-.223.09-.203.252.033.28.045.565.061.845.008.115 0 .233 0 .367-.473.032-.943.063-1.436.099v1.453H59.79c-.416 0-.416 0-.44.39-.021.289-.041.577-.057.865-.008.127-.053.186-.199.174-.336-.032-.671-.043-1.007-.067-.271-.02-.28-.012-.312.253-.04.331-.089.663-.125.998-.017.143-.085.174-.219.154-.352-.047-.708-.083-1.06-.138-.158-.023-.235.008-.259.174-.053.336-.138.671-.186 1.007-.028.185-.113.205-.275.17-.328-.068-.664-.115-.992-.19-.174-.04-.25-.004-.291.178-.073.347-.178.687-.263 1.034-.028.115-.069.15-.194.119-.344-.095-.696-.158-1.036-.261-.206-.063-.275 0-.328.181-.113.372-.243.739-.372 1.134-.3-.091-.583-.178-.87-.26-.174-.052-.385-.179-.51-.12-.121.056-.162.297-.23.459-.114.264-.22.536-.337.825a47.99 47.99 0 00-.477-.174c-.23-.087-.47-.166-.696-.268-.158-.072-.235-.048-.303.114-.158.367-.34.73-.523 1.117l-.602-.276c-.19-.087-.38-.17-.567-.26-.125-.06-.198-.048-.271.09-.19.363-.397.715-.611 1.098-.295-.154-.579-.296-.858-.446-.437-.233-.437-.233-.7.17a40.4 40.4 0 00-.405.635c-.077.126-.15.174-.299.071-.291-.197-.607-.367-.902-.56-.126-.083-.199-.083-.292.05-.234.336-.485.664-.744 1.016a92.13 92.13 0 01-.818-.573c-.376-.272-.376-.272-.675.079l-.64.762c-.384-.3-.756-.596-1.149-.904l-1.003 1.046a320.77 320.77 0 00-1.08-.979c-.365.332-.721.66-1.081.995-.344-.352-.676-.695-1.02-1.046l-1.133.92c-.316-.368-.62-.723-.943-1.102-.396.276-.78.549-1.186.833-.068-.079-.133-.15-.19-.225-.186-.249-.38-.493-.554-.754-.093-.138-.17-.166-.32-.067-.34.225-.692.434-1.06.663-.08-.114-.162-.225-.235-.335-.157-.237-.315-.474-.46-.719-.078-.126-.15-.138-.276-.067-.368.205-.74.402-1.125.608-.206-.363-.409-.71-.595-1.066-.08-.154-.15-.194-.323-.103-.36.19-.741.348-1.133.525-.162-.331-.32-.655-.482-.979-.024-.055-.06-.103-.077-.158-.053-.142-.138-.142-.267-.09-.376.153-.76.296-1.165.454-.04-.08-.081-.143-.11-.214a99.052 99.052 0 01-.396-.97c-.04-.111-.097-.14-.21-.1-.41.135-.818.265-1.255.407-.065-.182-.121-.355-.182-.525-.077-.225-.154-.45-.223-.675-.04-.126-.109-.162-.238-.126-.357.098-.717.177-1.073.276-.137.04-.194 0-.226-.13-.085-.34-.19-.672-.267-1.011-.04-.19-.134-.205-.296-.17-.392.083-.789.158-1.21.237a20.436 20.436 0 01-.247-1.244c-.02-.13-.08-.173-.218-.154-.372.052-.749.087-1.12.146-.139.02-.179-.011-.191-.142-.049-.414-.11-.829-.17-1.267-.494.032-.971.06-1.473.095a151.98 151.98 0 01-.101-1.437c-.437 0-.854-.008-1.27.004-.17.004-.223-.048-.22-.21.013-.355-.003-.71.005-1.066.004-.138-.049-.177-.186-.185-.417-.016-.834-.048-1.267-.075 0-.142-.004-.273 0-.399.016-.288.033-.576.06-.865.013-.13-.024-.19-.17-.201-.355-.032-.707-.079-1.063-.118-.223-.028-.243-.052-.21-.28.048-.344.096-.692.14-1.035.005-.044 0-.09 0-.146-.48-.091-.954-.178-1.444-.269.081-.406.15-.785.23-1.164.041-.186.005-.28-.21-.324-.38-.075-.756-.182-1.173-.28.113-.466.23-.924.348-1.398-.47-.15-.919-.292-1.396-.446.097-.304.19-.588.287-.877.166-.501.166-.501-.336-.69-.287-.111-.574-.222-.874-.336.162-.399.304-.782.47-1.153.069-.158.024-.221-.122-.284-.38-.166-.756-.34-1.149-.517.174-.368.34-.711.506-1.055.117-.244.121-.244-.113-.37-.271-.147-.547-.289-.818-.435-.077-.04-.15-.087-.243-.138l.7-1.263c-.416-.257-.82-.51-1.242-.77.26-.407.51-.802.773-1.22-.396-.28-.785-.56-1.19-.85.243-.33.466-.659.717-.966.137-.17.1-.257-.057-.376-.316-.232-.615-.485-.939-.742.267-.312.514-.612.77-.908.173-.205.177-.201-.025-.383-.251-.229-.498-.462-.757-.683-.11-.09-.113-.154-.016-.252.263-.265.51-.541.773-.806.093-.095.085-.158-.004-.249-.3-.304-.591-.608-.899-.923.316-.289.616-.573.927-.841.121-.107.126-.182.016-.304-.27-.3-.522-.616-.805-.948.194-.162.376-.316.567-.474.145-.118.287-.236.437-.351.1-.075.105-.142.024-.245-.255-.328-.502-.667-.765-1.022.097-.071.186-.139.275-.202.267-.193.53-.387.797-.572.093-.063.097-.119.037-.21-.239-.35-.47-.706-.716-1.081.165-.11.323-.217.485-.32.174-.11.352-.217.53-.328.227-.142.223-.142.09-.379-.187-.327-.369-.655-.567-1.006.056-.04.113-.087.174-.119.311-.17.619-.343.939-.505.141-.071.157-.138.085-.273-.19-.363-.36-.734-.547-1.12.356-.17.7-.332 1.044-.494.288-.135.288-.135.166-.43l-.42-1.023c.08-.04.149-.075.222-.107.32-.126.635-.256.959-.367.166-.06.174-.134.121-.28-.121-.32-.222-.648-.332-.972-.02-.055-.028-.114-.048-.193.28-.09.55-.182.821-.269.567-.181.567-.181.417-.75-.06-.22-.117-.446-.182-.667-.032-.118-.008-.178.125-.21.413-.098.822-.208 1.255-.319-.04-.225-.077-.442-.117-.66a15.78 15.78 0 00-.122-.6c-.028-.114.004-.17.13-.189.34-.06.675-.126 1.011-.19.085-.015.17-.035.275-.063-.06-.477-.121-.94-.182-1.42.49-.068.963-.127 1.465-.194l-.085-1.433c.49-.036.955-.068 1.457-.103v-.51c0-.244.008-.485-.004-.73-.008-.162.06-.205.214-.201.356.008.716-.004 1.073.004.153.004.21-.048.218-.202.012-.355.049-.706.065-1.062.004-.142.065-.181.198-.17.417.028.834.048 1.275.076.04-.277.077-.55.113-.818.016-.13.037-.26.045-.39.004-.174.089-.221.259-.198.4.055.8.099 1.234.154.032-.15.06-.292.089-.438.052-.265.109-.53.154-.794.02-.13.06-.185.21-.154.356.075.716.13 1.072.202.154.031.23-.004.267-.17.09-.39.199-.774.308-1.192.481.114.947.229 1.436.347l.357-1.082c.097-.288.052-.308.376-.201.311.103.631.193.943.296.137.047.206.02.259-.118.145-.387.303-.77.46-1.173.41.154.802.296 1.183.454.153.063.226.036.29-.11.167-.368.345-.727.527-1.118.263.115.518.233.773.34.19.079.408.245.566.201.142-.04.215-.308.312-.482.133-.229.259-.458.405-.714.283.146.562.288.837.434.457.245.457.249.74-.181.162-.241.316-.49.478-.735.008-.012.02-.016.053-.043.331.201.68.395 1.011.616.174.114.26.102.377-.071.214-.324.46-.628.712-.964.324.23.64.45.95.671.248.174.248.174.442-.055.243-.288.485-.58.736-.884.332.26.656.505.963.766.15.126.235.106.36-.028.264-.292.539-.568.83-.872.198.173.384.34.57.505.118.106.243.21.353.324.109.118.202.118.32.008.303-.293.61-.577.914-.861h.04l.737.801c.08.083.17.162.255.245.384-.312.752-.608 1.125-.912.323.375.635.734.95 1.102.41-.304.79-.577 1.186-.861.259.347.51.675.749 1.007.08.114.15.15.275.059.166-.115.34-.213.51-.32.19-.118.384-.233.59-.36.219.336.421.644.624.952.17.265.17.26.44.115.332-.182.668-.36 1.024-.549.207.363.413.703.595 1.054.085.162.166.202.336.11.364-.18.737-.343 1.121-.52.194.394.38.765.554 1.137.057.118.114.15.247.094.34-.142.692-.26 1.032-.402.146-.064.202-.024.25.106.13.34.276.671.406 1.011.044.114.1.158.226.11.17-.063.344-.114.518-.17.243-.078.482-.153.733-.232.137.41.27.793.388 1.184.044.138.101.19.259.142.324-.094.651-.17.98-.248.274-.067.274-.064.343.209.097.367.194.734.296 1.11.44-.084.857-.163 1.274-.245.134-.028.194.003.215.146.06.355.141.71.198 1.066.024.138.089.177.218.158.146-.024.292-.044.441-.06.284-.035.567-.067.85-.098.065.49.13.951.194 1.42.506-.03.988-.058 1.473-.09.029.426.07.817.081 1.212.004.186.077.23.255.221.409-.012.818-.004 1.247-.004 0 .438.008.853-.004 1.268-.005.15.048.19.194.193.364.012.728.04 1.088.051.146.004.199.067.187.21-.029.355-.05.706-.073 1.062-.009.122.012.201.161.213.349.031.697.079 1.044.118.26.028.264.032.227.296-.052.383-.097.766-.15 1.161.437.083.854.17 1.27.233.155.024.175.079.15.205-.064.328-.113.66-.19.987-.044.186-.028.289.195.328.332.06.651.158.979.229.154.036.21.087.158.253-.105.34-.174.687-.271 1.03-.037.127-.016.186.125.225.36.103.716.225 1.077.332.12.035.157.09.113.213-.118.336-.215.68-.34 1.01-.06.167-.012.23.141.285.385.138.761.292 1.162.446-.037.107-.065.201-.101.292-.118.292-.231.588-.356.88-.057.131-.037.194.105.253.388.166.765.352 1.161.537-.182.38-.348.747-.534 1.102-.077.15-.053.229.105.304.364.181.72.383 1.093.584a6.39 6.39 0 01-.097.19c-.154.276-.312.552-.466.829-.137.252-.137.252.114.406.327.202.655.407.995.616-.21.332-.413.644-.611.956-.166.26-.166.264.089.45.308.22.62.434.923.651a.24.24 0 01-.025.06c-.218.3-.44.6-.66.896-.17.233-.17.233.061.41.304.237.603.478.915.727-.316.383-.62.746-.927 1.117.219.201.413.39.62.572.153.135.315.261.473.387v.04c-.34.34-.676.683-1.028 1.034.263.273.502.53.749.778.085.087.186.162.279.24.024.028.024.044.024.056zM4.386 35.92c-.308 16.661 13.26 31.447 31.611 31.747 16.918.276 31.801-12.661 32.473-30.151.656-17.08-12.965-31.684-30.81-32.37C19.993 4.464 4.71 18.05 4.386 35.918z"/><path d="M36.126 67.053c-17.188.016-31.282-13.871-31.064-31.076.21-16.563 13.896-30.343 31.258-30.255 17.125.084 30.94 13.856 30.9 30.773-.041 16.854-13.957 30.558-31.094 30.558zm30.45-30.937C66.448 19.318 52.217 5.63 34.762 6.364 18.509 7.05 4.933 20.678 5.729 37.859c.735 15.84 14.34 29.206 31.67 28.532 16.24-.622 29.327-13.923 29.178-30.275z"/><path d="M37.702 25.873c-.045.18-.068.344-.131.493-.032.071-.131.163-.199.163-1.265.01-2.53.005-3.794.005-.014 0-.032-.013-.086-.03.068-.314.14-.635.213-.957.171-.806.347-1.612.519-2.418.027-.128.081-.212.23-.212 1.197.005 2.394 0 3.591.005.04 0 .081.017.154.035-.055.247-.095.489-.168.722-.018.053-.144.102-.22.102-.651.009-1.302.004-1.948.009-.383 0-.397.013-.402.453h1.988c-.068.313-.122.586-.19.895h-1.635c-.429 0-.429 0-.474.462.072.004.14.018.212.018.65 0 1.3.004 1.947 0 .167 0 .361.066.483-.133.018-.03.113-.026.172-.026a64.54 64.54 0 011.305 0c.077 0 .172.026.221.075.222.229.845.317 1.107.132.063-.048.135-.163.117-.225a.312.312 0 00-.203-.185c-.375-.07-.759-.105-1.138-.167a3.892 3.892 0 01-.745-.172c-.497-.185-.66-.608-.47-1.097.212-.55.664-.788 1.206-.89.759-.136 1.531-.158 2.29.01.302.07.582.237.894.37.027-.089.068-.225.108-.37h4.088c.01.048.018.07.014.092-.064.255-.055.608-.222.744-.167.132-.52.053-.79.053-.524.005-.52 0-.623.494a117.7 117.7 0 01-.457 2.048c-.013.057-.076.15-.117.154-.434.013-.867.009-1.337.009a627.5 627.5 0 01.583-2.696c-.389 0-.777-.097-1.075.022-.538.216-1.066.053-1.59.11-.068.009-.163-.062-.212-.119-.186-.233-.913-.313-1.139-.11-.14.123-.108.286.095.326.393.08.79.123 1.184.194.325.062.654.114.966.216.312.101.456.352.456.683 0 .577-.388 1.07-1.075 1.277-.894.273-1.815.3-2.732.119-.52-.106-.642-.216-.971-.683zm18.048.665c.149-.704.294-1.37.438-2.035.1-.454.203-.912.294-1.366.031-.154.095-.229.27-.224.42.009.836.009 1.256 0 .158-.005.249.048.316.194.24.524.488 1.044.737 1.564.04.083.081.163.162.317.063-.256.118-.436.158-.621.09-.415.172-.833.276-1.243.018-.079.13-.19.208-.19.388-.017.781-.008 1.21-.008l-.221 1.062c-.163.757-.339 1.51-.492 2.268-.046.225-.14.304-.37.291-.376-.018-.75-.009-1.125-.004-.136.004-.208-.044-.271-.168-.317-.625-.646-1.242-1.008-1.933-.045.154-.077.242-.095.33-.117.52-.234 1.04-.338 1.56-.032.167-.109.215-.276.21-.375-.008-.74-.004-1.129-.004zm-4.645-2.304l-.64.617c.293.159.257.44.211.731-.045.309-.072.622-.113.956-.429 0-.898.005-1.364-.009-.05 0-.135-.114-.135-.171.005-.19.045-.38.068-.569.027-.207-.077-.33-.28-.339a9.164 9.164 0 00-.922-.004c-.054 0-.13.097-.149.158-.067.243-.117.485-.167.732-.027.145-.09.211-.253.207-.393-.01-.781-.005-1.224-.005.068-.339.122-.647.185-.951.176-.815.366-1.626.533-2.44.037-.181.118-.234.29-.23 1.056.013 2.118.022 3.175.031.094 0 .185.018.28.035.478.106.682.41.596.881-.023.133-.068.256-.104.388.009 0 .014-.018.014-.018zm-3.066.234c.42 0 .795.004 1.174-.005.054 0 .131-.026.158-.066.072-.11.172-.242.158-.352-.009-.08-.185-.19-.289-.198-.312-.027-.628-.014-.944-.01-.05 0-.126.04-.135.076-.05.18-.082.366-.122.555zm-14.982.361c.343.203.28.489.248.775a51.55 51.55 0 00-.103.934h-1.107c-.443 0-.456-.017-.375-.454.108-.568.045-.647-.542-.651-.163 0-.325.013-.488-.005-.199-.022-.27.066-.298.242a9.37 9.37 0 01-.154.71c-.013.057-.085.145-.13.15-.434.013-.868.008-1.342.008l.294-1.37c.144-.674.293-1.352.438-2.026.027-.124.045-.22.212-.216 1.066.013 2.136.009 3.202.026.384.01.79.062.904.503.117.449-.068.832-.416 1.136-.095.08-.203.141-.343.238zm-2.394-.304c.452-.026.858-.035 1.256-.084.203-.026.302-.22.257-.396-.022-.093-.203-.19-.32-.198a6.064 6.064 0 00-.895-.005c-.063 0-.158.049-.176.097-.05.163-.072.344-.122.586z"/><path d="M51.107 24.235l-.009.017c.6-1.176 1.68-1.44 2.895-1.418a4.12 4.12 0 011.035.14c.803.234 1.147.833.984 1.64-.221 1.096-.88 1.762-2.019 1.929a6.288 6.288 0 01-1.725.022c-1.134-.159-1.567-.89-1.256-1.97l.095-.36zm2.096 1.48c.8 0 1.377-.7 1.206-1.472a.587.587 0 00-.407-.444c-.709-.243-1.44.22-1.549.977-.09.64.145.939.75.939zM27.274 54.036c-.307 0-.578.013-.845-.009-.072-.004-.162-.11-.198-.185a14.138 14.138 0 01-.416-1.048c-.054-.15-.126-.212-.294-.207-.745.008-1.486.008-2.23 0-.181-.005-.258.07-.312.224-.131.362-.285.714-.416 1.075-.045.124-.113.163-.244.159-.244-.009-.492-.005-.772-.005.113-.295.212-.56.316-.819.628-1.555 1.26-3.11 1.888-4.67.054-.127.117-.202.28-.198.307.014.682-.097.903.04.217.132.285.502.398.78.623 1.533 1.242 3.066 1.86 4.599.028.07.046.15.082.264zm-1.897-2.33c-.325-.815-.632-1.6-.944-2.38-.023 0-.045.005-.068.005-.311.784-.623 1.564-.944 2.375h1.956zm8.148-7.903c-.501.462-1.088.594-1.734.444a1.722 1.722 0 01-1.012-.678c-.587-.793-.528-1.978.136-2.683.664-.709 1.5-.744 2.601-.101a.129.129 0 00.037-.03c.031-.345.031-.345.397-.345h.438c.01.089.027.168.027.243 0 1.123-.013 2.25 0 3.374.01 1.128-.722 1.886-1.938 1.952a3.44 3.44 0 01-1.639-.313c-.163-.075-.217-.163-.122-.326.086-.15.154-.313.235-.48.479.238.957.396 1.486.365.781-.057 1.233-.608 1.088-1.422zm-1.088-.287c.7.005 1.192-.484 1.192-1.19.005-.722-.478-1.228-1.183-1.233a1.136 1.136 0 00-1.174 1.159c-.01.762.447 1.255 1.165 1.264zm.015 9.507c.203-.644.41-1.287.614-1.926.081-.255.149-.515.248-.762a.334.334 0 01.226-.167c.217-.022.443-.009.705-.009-.095.304-.176.577-.271.85-.307.908-.628 1.815-.926 2.723-.072.216-.163.317-.425.313-.713-.022-.709-.01-.935-.683-.22-.674-.456-1.344-.682-2.013-.018-.053-.045-.102-.095-.207-.08.229-.149.405-.207.585-.235.697-.474 1.388-.705 2.089-.054.167-.14.229-.33.229-.763-.005-.758 0-.998-.705-.325-.974-.66-1.943-.989-2.917-.027-.074-.045-.154-.072-.264.275 0 .524-.013.763.009.068.004.158.115.18.19.267.806.525 1.62.782 2.431.023.075.054.15.145.225.167-.502.334-1 .506-1.502.13-.388.262-.776.383-1.163.046-.141.122-.19.276-.194.74-.013.745-.022.98.656.24.692.474 1.388.71 2.084.013.044.035.084.053.128.023.004.046 0 .064 0zm-3.466-28.59c-.488 0-.962.004-1.44-.01-.06 0-.15-.092-.163-.153-.086-.348-.194-.498-.556-.507a1.676 1.676 0 00-.777.163c-.433.225-.677.899-.519 1.352a.699.699 0 00.271.34c.384.229 1.03.083 1.287-.287a.417.417 0 01.398-.202c.41.013.822.004 1.228.008.023 0 .05.01.127.027-.072.145-.122.29-.208.414-.339.493-.822.788-1.41.92-.817.186-1.639.225-2.443-.065-.628-.23-.935-.75-.849-1.401.18-1.322 1.025-2.093 2.408-2.18.64-.045 1.282-.063 1.892.184.614.242.885.727.754 1.397zm17.639 26.189v-.335c0-.617.004-1.233-.005-1.85 0-.163.032-.234.226-.238.633-.004.633-.009.633.612v5.207h-.84a36.39 36.39 0 00-.032-.418c-.502.506-1.084.625-1.73.471a1.913 1.913 0 01-1.116-.744c-.569-.762-.487-1.996.185-2.683a1.945 1.945 0 011.32-.586c.514-.026.952.141 1.359.564zm.05 1.467c-.01-.75-.506-1.251-1.229-1.242-.682.008-1.192.546-1.183 1.246.009.74.52 1.269 1.228 1.26.7-.009 1.193-.533 1.184-1.264zm-8.636-1.494c.045-.436.045-.436.433-.436h.42v3.855h-.817c-.01-.115-.023-.238-.036-.405-.474.466-1.016.603-1.635.489a1.884 1.884 0 01-1.138-.67c-.633-.77-.592-2.018.08-2.744a1.905 1.905 0 011.329-.617c.52-.035.97.123 1.364.528zm.072 1.511c.005-.727-.497-1.255-1.192-1.264-.7-.004-1.229.524-1.224 1.234.004.744.505 1.277 1.206 1.277.695.005 1.206-.524 1.21-1.247zm4.002-11.251c.009-.14.018-.198.013-.255-.009-.137.041-.198.19-.194.804.018.655-.123.664.604.009.99 0 1.982 0 2.973v.286h-.836c-.013-.118-.022-.237-.04-.41-.502.485-1.066.617-1.707.463a1.902 1.902 0 01-1.103-.718c-.578-.758-.528-1.951.1-2.647a1.93 1.93 0 011.314-.644c.524-.044.99.106 1.405.542zm.063 1.476c-.009-.731-.506-1.247-1.21-1.238-.714.01-1.202.529-1.193 1.282.005.723.524 1.238 1.224 1.23.696-.014 1.188-.543 1.179-1.274zM29.36 43.824c-.65.59-1.824.727-2.62.326-.722-.365-1.106-1.198-1.01-2.079.17-1.546 1.648-2.04 2.704-1.617.84.335 1.247 1.309 1.09 2.185h-2.878c-.01.978 1.016 1.256 2.313.64l.401.545zm-2.732-1.832h2.028a.96.96 0 00-.903-.952c-.601-.035-1.021.313-1.125.952zm23.485.37c-.009-1.145.904-2.044 2.083-2.053 1.255-.009 2.195.855 2.195 2.022.004 1.159-.908 2.04-2.114 2.053-1.224.013-2.155-.855-2.164-2.022zm.895-.026c-.005.735.51 1.264 1.237 1.268.71.005 1.256-.528 1.26-1.233.005-.745-.51-1.273-1.233-1.278-.745-.004-1.26.502-1.264 1.243zm5.353-1.52c.664-.556 1.342-.666 2.02-.318.492.256.767.666.78 1.203.023.793.005 1.581.01 2.374 0 .163-.054.212-.222.216-.623.009-.623.014-.623-.594 0-.551.005-1.102-.013-1.648-.019-.604-.366-.938-.93-.938-.61 0-1.03.379-1.044.964a57.705 57.705 0 00-.005 1.974c0 .18-.045.247-.244.247-.605-.005-.605.004-.605-.595 0-1.009.005-2.018-.004-3.022-.005-.212.063-.29.275-.264.032.004.068 0 .104 0 .43-.01.43-.01.501.4zm-39.158 3.471V40.41h.389c.397 0 .397 0 .465.384.054-.036.1-.062.14-.097.718-.621 1.902-.49 2.425.295.127.19.222.427.226.647.027.85.01 1.697.01 2.547 0 .022-.014.048-.028.101-.212 0-.433-.004-.65 0-.172.004-.158-.114-.158-.225v-1.7c0-.123-.005-.251-.01-.375-.03-.55-.379-.88-.93-.885-.564-.004-1.016.37-1.034.894a42.999 42.999 0 00-.009 2.022c.005.207-.059.287-.276.269-.176-.013-.356 0-.56 0zm34.72 6.199a80.14 80.14 0 01-.316.581c-.326-.088-.637-.203-.958-.251a2.16 2.16 0 00-.732.044c-.185.04-.334.176-.33.392 0 .22.172.3.348.344.204.053.42.07.628.114.28.062.574.106.836.22.786.348.88 1.322.185 1.833-.425.313-.921.374-1.432.366-.573-.014-1.11-.146-1.612-.49.113-.18.203-.356.33-.506.031-.04.18-.03.248.004.501.278 1.034.326 1.585.22a.816.816 0 00.28-.114c.258-.163.267-.48-.013-.599-.267-.11-.574-.136-.858-.207-.249-.057-.506-.101-.741-.194-.393-.154-.637-.445-.669-.872-.031-.432.131-.784.506-1.03.655-.428 2.046-.362 2.715.145zm-4.869-10.045v.732H45.87c-.33 0-.33-.005-.334.326 0 .44-.004.88 0 1.321.005.648.366.903 1.008.71.135-.044.266-.102.442-.168.09.176.194.353.276.538.018.04-.032.145-.082.171-.397.238-.83.353-1.296.291-.8-.106-1.183-.56-1.201-1.414-.01-.489 0-.982 0-1.471 0-.088-.01-.18-.014-.3h-.754v-.762h.772c0-.344.01-.656-.004-.97-.005-.166.045-.233.23-.233.763.014.619-.083.628.6.009.594 0 .594.6.594.28 0 .565.005.845.009.014 0 .032.013.068.026zm-22.159.731c-.429 0-.844.01-1.26-.004-.185-.004-.262.044-.257.234.013.484 0 .964.009 1.449.009.617.384.872.989.691.009-.004.018-.004.022-.008.493-.154.524-.146.696.334.018.058-.009.168-.054.203-.443.353-1.414.406-1.902.12-.465-.274-.582-.719-.6-1.2-.018-.497-.005-1-.005-1.497v-.317c-.217 0-.41.013-.6-.009-.068-.009-.127-.106-.19-.163-.005-.004 0-.018 0-.026-.05-.564-.05-.564.52-.573.076 0 .153-.004.275-.013 0-.317.009-.63-.005-.943-.009-.19.063-.238.249-.238.6-.004.6-.009.6.573 0 .621 0 .621.624.621h.89v.767zm-10.117.248c0-.851.005-1.697-.005-2.547 0-.194.037-.278.267-.273.646.009.646 0 .646.625 0 1.6-.005 3.194.004 4.793 0 .198-.045.278-.266.273-.641-.008-.641 0-.641-.625-.005-.75-.005-1.498-.005-2.247zm21.639-8.988c-.208.507-.42 1.014-.628 1.52-.04.102-.094.199-.122.3-.05.198-.167.255-.37.251-.18 0-.27-.053-.339-.22-.207-.529-.433-1.049-.654-1.573a.685.685 0 00-.172-.26c-.01.062-.027.12-.027.18-.005.644-.01 1.283 0 1.926.004.185-.059.25-.249.247-.18 0-.235-.066-.23-.238.005-.868.009-1.732 0-2.6 0-.171.068-.206.226-.206.501 0 .506-.01.695.431.226.52.443 1.049.664 1.569.018.044.046.083.09.171.055-.114.1-.19.132-.268.221-.525.451-1.044.645-1.573.095-.251.226-.348.502-.335.388.018.393.005.393.383v2.348c0 .159.027.313-.23.313-.254.005-.244-.132-.244-.304.004-.599 0-1.198.004-1.797v-.26a.295.295 0 01-.086-.005zm-19.061-8.299c-.262.035-.474.04-.673.101-.23.07-.474.159-.669.295-.447.322-.429.806.018 1.124.556.387 1.197.555 1.861.652 1.473.211 2.905.009 4.318-.406.086-.026.176-.044.326-.083-.258.445-.601.704-.999.898-.862.423-1.78.485-2.719.375-1.093-.128-2.123-.432-2.999-1.101-.863-.661-.686-1.309.258-1.736.352-.159.89-.198 1.278-.12z"/><path d="M12.941 23.494c.159-.171.271-.317.411-.44.542-.485 1.21-.723 1.929-.78 1.522-.128 2.958.15 4.241 1 .208.137.389.326.542.524.258.34.194.697-.122.978-.51.459-1.12.533-1.775.463.253-.044.506-.07.755-.137.171-.044.338-.119.487-.211.506-.317.52-.846.032-1.19-.502-.352-1.084-.52-1.685-.616-1.513-.242-2.99-.058-4.444.379-.072.022-.15.04-.221.061-.023 0-.041-.008-.15-.03z"/><path d="M18.488 24.23c-.895-.515-1.825-.458-2.755-.123-.574.207-.895.63-.809 1.128.04.246.194.497.361.691.425.49 1.008.758 1.608.987.325.123.66.22.994.33.068.022.136.049.271.102-.15.04-.226.07-.307.075-.962.044-1.91.026-2.81-.375-.758-.339-1.16-.973-1.016-1.66.136-.657.587-1.076 1.17-1.37.827-.415 1.707-.441 2.593-.239.266.062.5.247.75.38l-.05.074z"/><path d="M22.134 23.169c.424.21.781.484.985.907.162.34.05.714-.28 1.009-.439.392-.98.599-1.54.757-1.202.335-2.426.454-3.668.247-.452-.075-.876-.224-1.21-.55-.362-.353-.308-.705.103-.948-.022.159-.113.362-.063.52.095.29.375.44.655.56.863.357 1.739.273 2.61.066a3.744 3.744 0 001.627-.802c.47-.405.713-.903.709-1.515 0-.058.004-.115.013-.172.014-.014.027-.027.059-.08z"/><path d="M16.96 25.12c1.017.564 2.02.498 3.009.035.66-.308.8-1.013.352-1.577-.41-.52-.975-.828-1.58-1.066-.443-.172-.895-.313-1.387-.48.09-.031.149-.066.203-.07.917-.05 1.83-.062 2.701.286.167.066.33.14.479.238.899.568 1.007 1.62.244 2.37-.65.638-1.46.859-2.358.845-.56-.008-1.111-.053-1.563-.436a1.166 1.166 0 01-.076-.066c-.01-.013-.01-.03-.023-.08z"/><path d="M18.888 24.79c.267-.41.203-.666-.23-.943-.46-.295-.98-.392-1.513-.392-.836 0-1.644.154-2.39.55-.83.44-1.364 1.066-1.36 2.04 0 .03-.008.066-.013.097 0 .009-.009.013-.013.022-.447-.07-1.07-.736-1.08-1.172-.009-.357.2-.612.475-.815.582-.436 1.264-.647 1.969-.793 1.08-.224 2.159-.304 3.252-.08.46.093.88.265 1.183.64.244.317.118.7-.28.846zm17.771 19.497c-.244 0-.447-.004-.65 0-.159.004-.209-.062-.204-.207.005-.489 0-.982 0-1.471v-1.921c0-.08.009-.163.014-.278.234 0 .456-.008.672.01.055.004.118.083.15.14.027.053.013.123.022.242.52-.524 1.111-.581 1.802-.396l-.185.797c-.167-.03-.298-.057-.434-.079-.681-.114-1.178.278-1.187.96-.01.63 0 1.265 0 1.9v.303zm4.519 6.26c.456-.48.994-.56 1.594-.44.15.03.217.083.163.233-.01.022-.01.049-.018.075-.05.167-.05.388-.163.485-.085.07-.316-.018-.478-.036-.642-.07-1.098.309-1.107.948-.014.656-.01 1.317-.005 1.973 0 .185-.045.264-.257.26-.6-.009-.6 0-.6-.568 0-1.018.004-2.031-.005-3.049 0-.202.054-.3.27-.268.041.004.087 0 .127 0 .389 0 .389 0 .479.387zm-3.272-18.779h1.816c.397 0 .397 0 .352.431h-1.522c-.145 0-.217.053-.213.207.01.207.005.414.005.644h1.649c.099.418.08.44-.317.44-.366 0-.736.004-1.102 0-.171-.004-.24.048-.24.225-.004.652-.013.652.665.652.316 0 .632.009.948.004.154-.004.186.07.181.198-.005.124.005.234-.176.234-.642-.005-1.283 0-1.92-.013-.058 0-.167-.097-.171-.146-.01-.934-.005-1.863 0-2.797.004-.013.018-.031.045-.08zm-5.106.022v.414c-.488 0-.967.008-1.441-.005-.23-.004-.33.062-.308.295.019.172.005.348.005.551h1.676c.009.15.013.278.022.45h-1.242c-.556 0-.456-.045-.456.449 0 .427 0 .427.452.427.356 0 .718.004 1.075 0 .167-.004.253.04.253.225 0 .167-.077.211-.235.211a124.88 124.88 0 00-1.816 0c-.131 0-.208-.026-.208-.18.005-.917.005-1.833.005-2.75 0-.021.013-.048.027-.087h2.19zm7.79 2.99c.172-.431.34-.837.507-1.246.216-.533.424-1.07.655-1.6.031-.074.158-.154.239-.158.163 0 .384-.092.474.128.384.934.759 1.872 1.134 2.81.004.014-.005.031-.01.049-.397.097-.45.066-.586-.29-.167-.45-.167-.45-.655-.45-.258 0-.515.009-.768 0-.154-.005-.244.04-.28.19-.023.078-.059.153-.09.233-.14.374-.14.374-.62.335zm2.056-1.206c-.185-.454-.348-.855-.515-1.26h-.068l-.501 1.26h1.084zm5.53 10.713v-3.863h.822c.004.088.018.167.018.246 0 1.115-.005 2.234.004 3.349 0 .207-.058.286-.275.268-.176-.013-.357 0-.57 0zm1.003-5.224a.591.591 0 01-.615.572c-.311-.004-.587-.277-.591-.577-.005-.334.27-.599.623-.59.339 0 .587.26.583.595z"/></g></svg>